<svg width="220" height="30" viewBox="0 0 220 30" fill="none" xmlns="http://www.w3.org/2000/svg">
<g id="logo1">
<path id="Union" fill-rule="evenodd" clip-rule="evenodd" d="M47.5128 7.89338C47.5128 8.17124 47.5485 8.43881 47.6082 8.67551C47.6679 8.9122 47.7514 9.12832 47.8707 9.33414C47.99 9.52968 48.1213 9.70462 48.2764 9.85899C48.4315 10.0134 48.6105 10.1369 48.8014 10.2398C48.9923 10.3427 49.2071 10.425 49.4338 10.4765C49.6605 10.5279 49.923 10.5588 50.1974 10.5588C50.627 10.5588 50.9969 10.497 51.3309 10.3736C51.6531 10.2501 51.9276 10.0648 52.1662 9.81783C52.4048 9.56055 52.5838 9.2724 52.7031 8.93279C52.8225 8.59318 52.8821 8.20212 52.8821 7.78018C52.8821 7.48173 52.8582 7.21416 52.7986 6.95687C52.7389 6.70989 52.6554 6.47319 52.548 6.26736C52.4287 6.06154 52.2975 5.87629 52.1423 5.71163C51.9872 5.55726 51.8202 5.42348 51.6292 5.31027C51.4383 5.20736 51.2236 5.12504 50.9969 5.07358C50.7582 5.02212 50.5077 4.99125 50.2213 4.99125C49.7679 4.99125 49.3861 5.053 49.052 5.1765C48.8849 5.23825 48.7298 5.31027 48.5986 5.40289C48.4673 5.49551 48.3361 5.59844 48.2287 5.72193C48.1094 5.84543 48.0139 5.9895 47.9184 6.13357C47.8349 6.28794 47.7633 6.4526 47.7037 6.62755C47.644 6.81279 47.5963 6.99804 47.5724 7.21416C47.5247 7.43027 47.5128 7.65668 47.5128 7.89338ZM45.7588 7.88308C45.7588 7.49201 45.7946 7.12153 45.8781 6.77162C45.9616 6.42172 46.0809 6.08212 46.248 5.76309C46.415 5.44406 46.6179 5.15591 46.8684 4.89863C47.119 4.64135 47.4173 4.41494 47.7514 4.21941C48.0855 4.02387 48.4673 3.8798 48.8849 3.77689C49.2906 3.68427 49.744 3.63282 50.2213 3.63282C50.5435 3.63282 50.8537 3.65339 51.152 3.70485C51.4503 3.7563 51.7366 3.82834 52.0111 3.93125C52.2855 4.03417 52.5361 4.14738 52.7747 4.29145C53.0134 4.43553 53.2281 4.58988 53.431 4.77513C53.6338 4.96037 53.8009 5.15591 53.956 5.38232C54.1111 5.59843 54.2424 5.83514 54.3498 6.09242C54.4571 6.3497 54.5406 6.61726 54.5884 6.90542C54.6361 7.18328 54.6719 7.48173 54.6719 7.78018C54.6719 8.20212 54.6241 8.59318 54.5406 8.95337C54.4571 9.31357 54.3139 9.65318 54.1349 9.95162C53.956 10.2604 53.7293 10.5279 53.4549 10.7749C53.1924 11.0116 52.8702 11.2174 52.5122 11.3924C52.1543 11.5673 51.7963 11.6908 51.4026 11.7732C51.0208 11.8555 50.6151 11.9069 50.2094 11.9069C49.7918 11.9069 49.3741 11.8658 48.9923 11.7732C48.5986 11.6805 48.2287 11.5468 47.8827 11.3718C47.5366 11.1969 47.2264 10.9807 46.9639 10.7338C46.7014 10.4868 46.4747 10.1986 46.2957 9.88986C46.1167 9.58113 45.9855 9.25182 45.89 8.9225C45.7946 8.58289 45.7588 8.24327 45.7588 7.88308ZM26.6916 7.10095H28.8752C29.2451 7.10095 29.5553 7.07008 29.8059 7.01862C30.0326 6.96716 30.2235 6.89513 30.3428 6.8128C30.474 6.72018 30.5695 6.61727 30.6292 6.49377C30.6888 6.38057 30.7246 6.23649 30.7246 6.09242C30.7246 5.45436 30.1996 5.13532 29.1496 5.13532H26.6797V7.10095H26.6916ZM24.9496 11.5365V3.78718H29.0899C29.4598 3.78718 29.77 3.79747 30.0445 3.81805C30.3308 3.83863 30.5576 3.8798 30.7246 3.93125C30.8916 3.98271 31.0587 4.04446 31.2019 4.1062C31.345 4.17824 31.4763 4.25028 31.5956 4.3429C31.715 4.42523 31.8223 4.52814 31.9297 4.65164C32.0252 4.76484 32.1206 4.89862 32.2041 5.05299C32.2877 5.20736 32.3593 5.37202 32.407 5.54697C32.4547 5.72192 32.4666 5.89688 32.4666 6.09242C32.4666 7.21416 31.8224 7.93454 30.5218 8.25356C30.6411 8.33589 30.7604 8.42852 30.8678 8.53143C31.011 8.66522 31.1422 8.799 31.2615 8.93279C31.3928 9.07686 31.5121 9.22093 31.6195 9.3753L33.4212 11.7937H31.2735L30.0326 10.1266C29.9244 9.97892 29.8231 9.84888 29.7286 9.72757L29.7285 9.72748C29.6979 9.68818 29.668 9.64979 29.6388 9.61201C29.5889 9.55182 29.5412 9.49342 29.4955 9.43756L29.4954 9.43749L29.4954 9.4374C29.4317 9.35963 29.3722 9.2868 29.3166 9.22094C29.2212 9.10774 29.1257 9.01512 29.0303 8.93279C28.9468 8.85046 28.8513 8.77841 28.7678 8.71666C28.7045 8.66991 28.6413 8.63496 28.5832 8.60287C28.5646 8.59258 28.5465 8.58258 28.5291 8.57259C28.4575 8.54171 28.3979 8.52113 28.3382 8.51084C28.3192 8.50811 28.2993 8.50464 28.2786 8.50103C28.2214 8.49106 28.1577 8.47997 28.0877 8.47997C27.9803 8.46969 27.8611 8.46969 27.7061 8.46969H27.7058H26.6678V11.7937H24.9376V11.5365H24.9496ZM6.15686 7.35823H8.10176C9.28302 7.35823 9.8796 6.98775 9.8796 6.24678C9.8796 6.14387 9.86768 6.05125 9.85575 5.97921C9.84383 5.9073 9.82001 5.83537 9.79619 5.76346L9.79607 5.76309C9.7722 5.70134 9.73642 5.6396 9.70063 5.58814C9.66483 5.53668 9.61711 5.48523 9.55745 5.44406C9.50972 5.4029 9.45005 5.36173 9.39039 5.33086L9.39038 5.33086C9.31879 5.29998 9.2472 5.26911 9.16368 5.24853C9.09209 5.22795 8.96084 5.20736 8.79379 5.19707C8.60288 5.18678 8.37619 5.1765 8.10176 5.1765H6.15686V7.35823ZM4.40287 11.5365V3.78718H7.98243C8.22096 3.78718 8.44755 3.79746 8.67415 3.80775L8.67447 3.80776C8.88924 3.81806 9.10404 3.83862 9.29495 3.85921C9.49779 3.87979 9.68869 3.92097 9.8796 3.98271C10.0705 4.04446 10.2614 4.1165 10.4285 4.20912C10.6074 4.30174 10.7745 4.42523 10.9296 4.55902C11.0728 4.6928 11.2041 4.84717 11.3114 5.02212C11.4188 5.19707 11.5023 5.38232 11.562 5.58814C11.6217 5.78367 11.6455 5.99979 11.6455 6.21591C11.6455 7.90367 10.4523 8.74754 8.07787 8.74754H6.13301V11.7937H4.40287V11.5365ZM0 0H58.7526V15.5809H0V0ZM212.745 8.89147L214.13 8.78856L214.165 9.02526C214.201 9.29283 214.285 9.51924 214.404 9.71477C214.523 9.90001 214.678 10.0544 214.881 10.1676C215.096 10.2911 215.323 10.3837 215.585 10.4455C215.848 10.5072 216.134 10.5381 216.444 10.5381C216.778 10.5381 217.065 10.5072 217.315 10.4557C217.542 10.4043 217.733 10.322 217.888 10.219C218.031 10.1161 218.151 10.0029 218.21 9.88972C218.282 9.77651 218.318 9.65302 218.318 9.50895C218.318 9.41633 218.306 9.32371 218.27 9.25167C218.234 9.16934 218.186 9.09731 218.115 9.03556C218.043 8.96352 217.96 8.90177 217.864 8.84002C217.757 8.77828 217.637 8.72681 217.506 8.68565C217.363 8.64448 217.148 8.58275 216.886 8.521C216.611 8.45925 216.277 8.3872 215.884 8.31516C215.585 8.25341 215.311 8.19168 215.06 8.12993C214.798 8.05789 214.571 7.98585 214.356 7.90352C214.13 7.82119 213.927 7.71827 213.748 7.59478C213.569 7.47128 213.402 7.32721 213.258 7.16255C213.115 6.99789 213.008 6.81265 212.936 6.61712C212.865 6.42158 212.829 6.20547 212.829 5.97907C212.829 5.74237 212.865 5.51596 212.936 5.32043C213.008 5.1146 213.103 4.91907 213.247 4.75441C213.378 4.58975 213.557 4.43538 213.76 4.30159C213.962 4.16781 214.189 4.0546 214.452 3.96198C214.714 3.86936 214.989 3.79731 215.275 3.74586C215.561 3.6944 215.872 3.67383 216.182 3.67383C216.731 3.67383 217.22 3.72529 217.649 3.83849C218.091 3.95169 218.461 4.12664 218.771 4.35305C219.081 4.57946 219.308 4.84703 219.475 5.15577C219.642 5.45421 219.726 5.79382 219.749 6.15402L219.761 6.40099L218.103 6.50391L218.067 6.26722C218.019 5.85557 217.84 5.54683 217.554 5.3513C217.256 5.14548 216.814 5.04256 216.23 5.04256C215.621 5.04256 215.168 5.12489 214.881 5.27925C214.631 5.42333 214.511 5.62915 214.511 5.91731C214.511 5.99964 214.523 6.07168 214.559 6.14371C214.583 6.20546 214.631 6.26722 214.69 6.32896C214.75 6.39071 214.834 6.45246 214.917 6.49363C215.001 6.54508 215.096 6.58624 215.203 6.61712C215.323 6.65828 215.478 6.69944 215.669 6.74061C215.751 6.75729 215.837 6.77567 215.928 6.79505C216.061 6.82349 216.205 6.85408 216.361 6.88468C216.85 6.9773 217.268 7.06992 217.578 7.14196C217.912 7.22429 218.186 7.30663 218.365 7.37867C218.544 7.45071 218.711 7.53304 218.867 7.61537C219.022 7.6977 219.153 7.80061 219.272 7.90352C219.391 8.00643 219.499 8.10933 219.594 8.23283C219.69 8.34603 219.761 8.46953 219.821 8.59303C219.881 8.71652 219.928 8.85031 219.952 8.99439C219.988 9.13846 220 9.28254 220 9.42661C220 9.81768 219.916 10.1676 219.738 10.4763C219.559 10.7851 219.296 11.0526 218.938 11.279C218.604 11.4952 218.222 11.6598 217.816 11.7627C217.411 11.8656 216.957 11.9274 216.48 11.9274C215.848 11.9274 215.299 11.8656 214.81 11.7421C214.308 11.6186 213.891 11.4231 213.557 11.1658C213.211 10.9086 212.96 10.6101 212.769 10.2808C212.59 9.94118 212.495 9.5707 212.471 9.15905L212.459 8.92236L212.745 8.89147ZM192.235 8.89147L193.619 8.78856L193.654 9.02526C193.69 9.29283 193.774 9.51924 193.893 9.71477C194.012 9.90001 194.167 10.0544 194.37 10.1676C194.585 10.2911 194.812 10.3837 195.074 10.4455C195.337 10.5072 195.623 10.5381 195.933 10.5381C196.267 10.5381 196.554 10.5072 196.804 10.4557C197.031 10.4043 197.222 10.322 197.377 10.219C197.52 10.1161 197.64 10.0029 197.699 9.88972C197.771 9.77651 197.807 9.65302 197.807 9.50895C197.807 9.41633 197.795 9.32371 197.759 9.25167C197.723 9.16934 197.675 9.09731 197.604 9.03556C197.532 8.96352 197.449 8.90177 197.353 8.84002C197.246 8.77828 197.127 8.72681 196.995 8.68565C196.852 8.64448 196.637 8.58275 196.375 8.521C196.1 8.45925 195.766 8.3872 195.373 8.31516C195.074 8.25341 194.8 8.19168 194.537 8.12993C194.275 8.05789 194.048 7.98585 193.833 7.90352C193.607 7.82119 193.404 7.71827 193.225 7.59478C193.046 7.47128 192.879 7.32721 192.736 7.16255C192.592 6.99789 192.485 6.81265 192.413 6.61712C192.342 6.42158 192.306 6.20547 192.306 5.97907C192.306 5.74237 192.342 5.51596 192.413 5.32043C192.485 5.1146 192.581 4.91907 192.724 4.75441C192.855 4.58975 193.034 4.43538 193.237 4.30159C193.44 4.16781 193.666 4.0546 193.929 3.96198C194.191 3.86936 194.466 3.79731 194.752 3.74586C195.039 3.6944 195.349 3.67383 195.659 3.67383C196.208 3.67383 196.709 3.72529 197.127 3.83849C197.568 3.95169 197.938 4.12664 198.248 4.35305C198.558 4.57946 198.785 4.84703 198.952 5.15577C199.119 5.45421 199.203 5.79382 199.227 6.15402L199.239 6.40099L197.58 6.50391L197.544 6.26722C197.497 5.85557 197.317 5.54683 197.031 5.3513C196.733 5.14548 196.291 5.04256 195.707 5.04256C195.098 5.04256 194.645 5.12489 194.358 5.27925C194.108 5.42333 193.988 5.62915 193.988 5.91731C193.988 5.99964 194 6.07168 194.036 6.14371C194.06 6.20546 194.108 6.26722 194.167 6.32896C194.227 6.39071 194.311 6.45246 194.394 6.49363C194.478 6.54508 194.573 6.58624 194.681 6.61712C194.8 6.65828 194.955 6.69944 195.146 6.74061C195.228 6.75729 195.314 6.77565 195.405 6.79503L195.405 6.79505C195.538 6.82349 195.682 6.85408 195.838 6.88468C196.327 6.9773 196.745 7.06992 197.055 7.14196C197.389 7.22429 197.664 7.30663 197.843 7.37867C198.022 7.45071 198.189 7.53304 198.344 7.61537C198.499 7.6977 198.63 7.80061 198.749 7.90352C198.869 8.00643 198.976 8.10933 199.071 8.23283C199.167 8.34603 199.239 8.46953 199.298 8.59303C199.358 8.71652 199.406 8.85031 199.429 8.99439C199.465 9.13846 199.477 9.28254 199.477 9.42661C199.477 9.81768 199.394 10.1676 199.215 10.4763C199.036 10.7851 198.773 11.0526 198.427 11.279C198.093 11.4952 197.711 11.6598 197.306 11.7627C196.9 11.8656 196.446 11.9274 195.969 11.9274C195.337 11.9274 194.788 11.8656 194.299 11.7421C193.798 11.6186 193.38 11.4231 193.046 11.1658C192.7 10.9086 192.449 10.6101 192.258 10.2808C192.079 9.94118 191.984 9.5707 191.96 9.15905L191.948 8.92236L192.235 8.89147ZM171.891 11.5363V3.78703H178.763V5.17635H173.621V6.96701H178.441V8.35633H173.621V10.4043H178.966V11.7936H171.891V11.5363ZM150.676 11.5363V3.78703H152.299L156.427 9.10759V3.78703H158.121V11.7936H156.487L152.346 6.46275V11.7936H150.664V11.5363H150.676ZM131.465 11.5363V3.78703H133.196V10.4043H137.479V11.7936H131.465V11.5363ZM112.303 11.5363V3.78703H114.033V10.4043H118.317V11.7936H112.303V11.5363ZM91.8635 11.5363V3.78703H98.7363V5.17635H93.5937V6.96701H98.4142V8.35633H93.5937V10.4043H98.9392V11.7936H91.8635V11.5363ZM69.4793 11.5981L67.0691 3.78703H68.8589L70.243 8.90177L70.3503 9.334C70.7019 8.10041 71.123 6.85759 71.5421 5.621L71.5422 5.62076C71.7488 5.01081 71.955 4.40238 72.1521 3.79732H73.9657L75.2663 7.76973C75.4334 8.274 75.5646 8.74739 75.6839 9.20021L75.6958 9.24138C76.197 7.43013 76.722 5.60857 77.247 3.79732H79.001C78.7183 4.68677 78.4369 5.57622 78.1555 6.46568L78.1555 6.46583C77.5937 8.24175 77.0319 10.0177 76.4595 11.7936H74.8845L73.035 5.95848L71.1498 11.7936H69.5151L69.4793 11.5981ZM217.47 27.9418C217.721 28.0653 218.019 28.127 218.377 28.127C218.89 28.127 219.296 28.0138 219.57 27.7771C219.857 27.5301 220 27.2008 220 26.7583V26.7274H219.034V26.7583C219.034 26.9332 218.986 27.0773 218.867 27.1699C218.747 27.2625 218.592 27.314 218.377 27.314C218.151 27.314 217.984 27.2522 217.852 27.1185C217.721 26.9847 217.661 26.8097 217.661 26.573V26.0173H219.988V24.7618C219.988 24.4325 219.928 24.1443 219.797 23.9179C219.666 23.6915 219.475 23.5165 219.224 23.393C218.974 23.2695 218.676 23.2078 218.33 23.2078C217.984 23.2078 217.685 23.2695 217.447 23.4033C217.208 23.5371 217.017 23.7224 216.886 23.9796C216.755 24.2266 216.695 24.5354 216.695 24.8853V26.5524C216.695 26.8818 216.766 27.1699 216.898 27.4066C217.029 27.633 217.22 27.8183 217.47 27.9418ZM217.661 25.2969V24.8338C217.661 24.5662 217.721 24.3604 217.84 24.2163C217.948 24.0723 218.115 24.0002 218.33 24.0002C218.556 24.0002 218.723 24.0723 218.843 24.206C218.962 24.3398 219.022 24.5354 219.022 24.7823V25.2969H217.661ZM210.443 25.206L208.999 28.055H208.187V23.2901H209.13V26.1382L210.574 23.2798H211.385V28.0447H210.443V25.206ZM200.599 26.1305V28.055H199.585V23.2901H200.599V25.3072H201.756V23.2901H202.77V28.055H201.756V26.1305H200.599ZM191.149 27.7977C191.375 28.0138 191.722 28.127 192.175 28.127C192.425 28.127 192.628 28.0858 192.783 28.0138C192.95 27.9315 193.07 27.8183 193.153 27.6536C193.162 27.6372 193.17 27.6205 193.177 27.6035V28.0652H194.168V24.5765C194.168 24.2884 194.108 24.0414 193.977 23.8356C193.845 23.6297 193.666 23.4754 193.416 23.3725C193.165 23.2592 192.879 23.2078 192.533 23.2078C192.02 23.2078 191.626 23.3313 191.34 23.568C191.065 23.8047 190.922 24.1443 190.922 24.5765H191.912C191.912 24.3913 191.96 24.2369 192.068 24.134C192.175 24.0311 192.318 23.9796 192.509 23.9796C192.724 23.9796 192.891 24.0311 193.01 24.134C193.129 24.2369 193.189 24.381 193.189 24.5765H193.177V25.1837H192.521C191.948 25.1837 191.519 25.3175 191.232 25.5851C190.946 25.8526 190.803 26.254 190.803 26.7891C190.803 27.242 190.922 27.5713 191.149 27.7977ZM193.177 25.9658H192.521C192.27 25.9658 192.079 26.0379 191.96 26.1717C191.841 26.3055 191.769 26.5113 191.769 26.7891C191.769 26.9744 191.817 27.1185 191.936 27.2111C192.044 27.3037 192.211 27.3449 192.425 27.3449C192.676 27.3449 192.867 27.2831 192.986 27.1596C193.118 27.0361 193.177 26.8612 193.177 26.6142V25.9658ZM183.488 23.2901H182.474V28.055H183.119V28.0755H184.371C184.789 28.0755 185.123 27.9829 185.35 27.7874C185.577 27.6021 185.696 27.3346 185.696 26.9847V26.5113C185.696 26.2437 185.624 26.0379 185.457 25.8732C185.302 25.7086 185.075 25.6057 184.777 25.5645C185.04 25.5233 185.242 25.4307 185.386 25.2763C185.529 25.122 185.6 24.9367 185.6 24.7V24.2987C185.6 23.9899 185.493 23.7429 185.266 23.568C185.052 23.393 184.741 23.3107 184.336 23.3107H183.488V23.2901ZM183.488 24.134H184.192C184.312 24.134 184.407 24.1649 184.479 24.2163C184.55 24.2678 184.586 24.3501 184.586 24.4427V24.7C184.586 24.8441 184.538 24.947 184.455 25.0293C184.359 25.1014 184.24 25.1425 184.073 25.1425H183.488V24.134ZM183.488 25.9658H184.073C184.252 25.9658 184.407 26.007 184.515 26.0996C184.622 26.1922 184.682 26.3157 184.682 26.4804V26.8303C184.682 26.9641 184.646 27.0567 184.574 27.1287C184.503 27.2008 184.407 27.2317 184.276 27.2317H183.488V25.9658ZM175.995 27.139C175.888 27.2317 175.745 27.2831 175.566 27.2831C175.387 27.2831 175.244 27.2317 175.148 27.139C175.041 27.0361 174.993 26.9023 174.993 26.7274V24.6074C174.993 24.4324 175.041 24.2987 175.148 24.206C175.244 24.1134 175.387 24.062 175.566 24.062C175.757 24.062 175.888 24.1134 175.995 24.206C176.103 24.2987 176.15 24.4324 176.15 24.6074V26.7274C176.15 26.9023 176.091 27.0464 175.995 27.139ZM174.719 27.9623C174.957 28.0755 175.244 28.127 175.578 28.127C175.912 28.127 176.198 28.0755 176.437 27.952C176.675 27.8491 176.854 27.6948 176.974 27.4889C177.093 27.2831 177.153 27.0361 177.153 26.748V24.5559C177.153 24.2678 177.093 24.0208 176.974 23.815C176.854 23.6091 176.675 23.4548 176.437 23.3519C176.198 23.249 175.912 23.1975 175.578 23.1975C175.244 23.1975 174.957 23.249 174.719 23.3519C174.48 23.4548 174.301 23.6091 174.17 23.815C174.038 24.0208 173.979 24.2678 173.979 24.5559V26.7377C173.979 27.0361 174.038 27.2831 174.17 27.4889C174.301 27.6948 174.48 27.8491 174.719 27.9623ZM166.808 27.9109C166.999 28.055 167.225 28.127 167.488 28.127C167.762 28.127 167.989 28.0653 168.18 27.9418C168.371 27.8286 168.514 27.6536 168.621 27.4169C168.729 27.1905 168.776 26.9126 168.776 26.5833V24.7206C168.776 24.4016 168.729 24.1237 168.633 23.8973C168.538 23.6709 168.395 23.4959 168.204 23.3827C168.025 23.2695 167.798 23.2078 167.536 23.2078C167.285 23.2078 167.058 23.2798 166.843 23.4342C166.688 23.546 166.564 23.6902 166.462 23.8668V23.2901H165.447V30H166.462V27.4869C166.546 27.6636 166.663 27.8019 166.808 27.9109ZM166.462 24.7412C166.462 24.5868 166.486 24.4633 166.533 24.3501C166.593 24.2369 166.665 24.1546 166.76 24.0928C166.855 24.0311 166.975 24.0002 167.106 24.0002C167.309 24.0002 167.464 24.062 167.583 24.1958C167.691 24.3295 167.75 24.5148 167.75 24.7515V26.5422C167.75 26.7891 167.703 26.9847 167.583 27.1185C167.464 27.2522 167.309 27.3243 167.106 27.3243C166.975 27.3243 166.855 27.2934 166.76 27.2317C166.665 27.1699 166.581 27.0876 166.533 26.9744C166.486 26.8612 166.462 26.7171 166.462 26.5627V24.7412ZM159.088 25.2089V28.055H160.03V23.2901H159.231L157.787 26.1484V23.3004H156.845V28.0652H157.656L159.088 25.2089ZM149.733 23.2901H148.743V24.1134H149.733V28.055H150.747V24.1134H151.738V23.2901H150.747H149.733ZM141.631 26.1099V28.055H140.617V23.2901H141.631V25.2866H142.218L143.063 23.2901H144.101L143.039 25.6899L144.28 28.0652H143.206L142.196 26.1099H141.631ZM132.766 27.9418C133.017 28.0653 133.315 28.127 133.673 28.127C134.186 28.127 134.592 28.0138 134.866 27.7771C135.152 27.5301 135.296 27.2008 135.296 26.7583V26.7274H134.329V26.7583C134.329 26.9332 134.281 27.0773 134.162 27.1699C134.043 27.2625 133.888 27.314 133.673 27.314C133.446 27.314 133.279 27.2522 133.148 27.1185C133.017 26.9847 132.957 26.8097 132.957 26.573V26.0173H135.284V24.7618C135.284 24.4325 135.224 24.1443 135.093 23.9179C134.962 23.6915 134.771 23.5165 134.52 23.393C134.269 23.2695 133.971 23.2078 133.625 23.2078C133.279 23.2078 132.981 23.2695 132.742 23.4033C132.504 23.5371 132.313 23.7224 132.181 23.9796C132.05 24.2266 131.99 24.5354 131.99 24.8853V26.5524C131.99 26.8818 132.062 27.1699 132.193 27.4066C132.325 27.633 132.515 27.8183 132.766 27.9418ZM132.957 25.2969V24.8338C132.957 24.5662 133.017 24.3604 133.136 24.2163C133.243 24.0723 133.41 24.0002 133.625 24.0002C133.852 24.0002 134.019 24.0723 134.138 24.206C134.258 24.3398 134.317 24.5354 134.317 24.7823V25.2969H132.957ZM125.619 27.139C125.523 27.2317 125.38 27.2831 125.201 27.2831C125.01 27.2831 124.867 27.2317 124.784 27.139C124.676 27.0361 124.629 26.9023 124.629 26.7274V24.6074C124.629 24.4324 124.676 24.2987 124.784 24.206C124.879 24.1134 125.022 24.062 125.201 24.062C125.38 24.062 125.511 24.1134 125.619 24.206C125.726 24.2987 125.774 24.4324 125.774 24.6074V26.7274C125.774 26.9023 125.714 27.0464 125.619 27.139ZM124.354 27.9623C124.593 28.0755 124.879 28.127 125.213 28.127C125.535 28.127 125.822 28.0755 126.072 27.952C126.311 27.8491 126.49 27.6948 126.609 27.4889C126.729 27.2831 126.788 27.0361 126.788 26.748V24.5559C126.788 24.2678 126.729 24.0208 126.609 23.815C126.49 23.6091 126.311 23.4548 126.072 23.3519C125.834 23.249 125.547 23.1975 125.213 23.1975C124.879 23.1975 124.593 23.249 124.354 23.3519C124.115 23.4548 123.936 23.6091 123.805 23.815C123.674 24.0208 123.614 24.2678 123.614 24.5559V26.7377C123.614 27.0361 123.674 27.2831 123.805 27.4889C123.936 27.6948 124.115 27.8491 124.354 27.9623ZM116.431 27.9109C116.622 28.055 116.849 28.127 117.111 28.127C117.386 28.127 117.624 28.0653 117.815 27.9418C118.006 27.8286 118.15 27.6536 118.257 27.4169C118.364 27.1905 118.412 26.9126 118.412 26.5833V24.7206C118.412 24.4016 118.364 24.1237 118.269 23.8973C118.173 23.6709 118.03 23.4959 117.839 23.3827C117.66 23.2695 117.434 23.2078 117.171 23.2078C116.909 23.2078 116.682 23.2798 116.467 23.4342C116.318 23.5417 116.197 23.6791 116.097 23.8464V23.2901H115.083V30H116.097V27.5112C116.181 27.6763 116.294 27.807 116.431 27.9109ZM116.097 26.7453C116.109 26.8296 116.129 26.9074 116.157 26.9744C116.205 27.0876 116.288 27.1699 116.384 27.2317C116.479 27.2934 116.598 27.3243 116.73 27.3243C116.932 27.3243 117.088 27.2522 117.207 27.1185C117.326 26.9847 117.374 26.7891 117.374 26.5422V24.7515C117.374 24.5148 117.314 24.3295 117.207 24.1958C117.088 24.062 116.932 24.0002 116.73 24.0002C116.598 24.0002 116.479 24.0311 116.384 24.0928C116.288 24.1546 116.217 24.2369 116.157 24.3501C116.129 24.4171 116.109 24.4877 116.097 24.5661V26.7453ZM108.652 23.2901H107.494H107.077H106.48V28.055H107.494V24.1134H108.652V28.055H109.666V23.2901H109.224H108.652ZM85.7067 27.9418C85.9573 28.0653 86.2556 28.127 86.6135 28.127C87.1385 28.127 87.5442 28.0138 87.8067 27.7771C88.0931 27.5301 88.2363 27.2008 88.2363 26.7583V26.7274H87.2698V26.7583C87.2698 26.9332 87.2221 27.0773 87.1027 27.1699C86.9834 27.2625 86.8283 27.314 86.6135 27.314C86.3868 27.314 86.2198 27.2522 86.0885 27.1185C85.9573 26.9847 85.8976 26.8097 85.8976 26.573V26.0173H88.2243V24.7618C88.2243 24.4325 88.1647 24.1443 88.0334 23.9179C87.9022 23.6915 87.7113 23.5165 87.4607 23.393C87.2101 23.2695 86.9118 23.2078 86.5658 23.2078C86.2198 23.2078 85.9215 23.2695 85.6828 23.4033C85.4442 23.5371 85.2533 23.7224 85.122 23.9796C84.9908 24.2266 84.9311 24.5354 84.9311 24.8853V26.5524C84.9311 26.8818 85.0027 27.1699 85.134 27.4066C85.2652 27.633 85.4562 27.8183 85.7067 27.9418ZM85.8976 25.2969V24.8338C85.8976 24.5662 85.9573 24.3604 86.0766 24.2163C86.184 24.0723 86.3511 24.0002 86.5658 24.0002C86.7925 24.0002 86.9596 24.0723 87.0789 24.206C87.1982 24.3398 87.2579 24.5354 87.2579 24.7823V25.2969H85.8976ZM78.5714 27.139C78.4641 27.2317 78.3209 27.2831 78.1419 27.2831C77.9629 27.2831 77.8197 27.2317 77.7243 27.139C77.6169 27.0361 77.5692 26.9023 77.5692 26.7274V24.6074C77.5692 24.4324 77.6169 24.2987 77.7243 24.206C77.8197 24.1134 77.9629 24.062 78.1419 24.062C78.3328 24.062 78.4641 24.1134 78.5714 24.206C78.6788 24.2987 78.7266 24.4324 78.7266 24.6074V26.7274C78.7266 26.9023 78.6669 27.0464 78.5714 27.139ZM77.2947 27.9623C77.5334 28.0755 77.8197 28.127 78.1538 28.127C78.4879 28.127 78.7743 28.0755 79.0129 27.952C79.2516 27.8491 79.4306 27.6948 79.5499 27.4889C79.6692 27.2831 79.7288 27.0361 79.7288 26.748V24.5559C79.7288 24.2678 79.6692 24.0208 79.5499 23.815C79.4306 23.6091 79.2516 23.4548 79.0129 23.3519C78.7743 23.249 78.4879 23.1975 78.1538 23.1975C77.8197 23.1975 77.5334 23.249 77.2947 23.3519C77.0561 23.4548 76.8771 23.6091 76.7459 23.815C76.6146 24.0208 76.555 24.2678 76.555 24.5559V26.7377C76.555 27.0361 76.6146 27.2831 76.7459 27.4889C76.8771 27.6948 77.0561 27.8491 77.2947 27.9623ZM69.0737 26.1305V28.055H68.0595V23.2901H69.0737V25.3072H70.2311V23.2901H71.2453V28.055H70.2311V26.1305H69.0737ZM60.3634 27.9623C60.614 28.0755 60.9123 28.127 61.2702 28.127C61.6282 28.127 61.9265 28.0755 62.1651 27.952C62.4157 27.8388 62.6066 27.6742 62.7379 27.4581C62.881 27.2522 62.9407 26.9847 62.9407 26.6862V26.5319H61.9384V26.6862C61.9384 26.8818 61.8787 27.0361 61.7594 27.1493C61.6401 27.2625 61.485 27.314 61.2702 27.314C61.0554 27.314 60.8884 27.2625 60.7691 27.1596C60.6497 27.0567 60.5901 26.9126 60.5901 26.7171V24.7C60.5901 24.4942 60.6497 24.3192 60.7691 24.206C60.8884 24.0928 61.0554 24.0311 61.2702 24.0311C61.485 24.0311 61.6401 24.0825 61.7594 24.206C61.8787 24.3192 61.9384 24.4942 61.9384 24.7103V24.8647H62.9407V24.7103C62.9407 24.3913 62.881 24.1237 62.7498 23.8973C62.6185 23.6709 62.4276 23.4959 62.1771 23.3827C61.9265 23.2695 61.6282 23.2078 61.2702 23.2078C60.9123 23.2078 60.614 23.2695 60.3634 23.3827C60.1128 23.4959 59.9219 23.6709 59.7907 23.887C59.6594 24.1031 59.5998 24.3707 59.5998 24.6897V26.7068C59.5998 27.0053 59.6594 27.2625 59.7907 27.4787C59.9219 27.6948 60.1128 27.8491 60.3634 27.9623ZM52.4287 26.1099V28.055H51.4145V23.2901H52.4287V25.2866H53.0037L53.8486 23.2901H54.8867L53.8359 25.6886L55.0776 28.0652H54.0037L52.9935 26.1099H52.4287ZM43.5633 27.9418C43.8139 28.0653 44.1122 28.127 44.4701 28.127C44.9832 28.127 45.3889 28.0138 45.6633 27.7771C45.9497 27.5301 46.0929 27.2008 46.0929 26.7583V26.7274H45.1264V26.7583C45.1264 26.9332 45.0786 27.0773 44.9593 27.1699C44.84 27.2625 44.6849 27.314 44.4701 27.314C44.2434 27.314 44.0764 27.2522 43.9451 27.1185C43.8139 26.9847 43.7542 26.8097 43.7542 26.573V26.0173H46.0809V24.7618C46.0809 24.4325 46.0213 24.1443 45.89 23.9179C45.7588 23.6915 45.5679 23.5165 45.3173 23.393C45.0667 23.2695 44.7684 23.2078 44.4224 23.2078C44.0764 23.2078 43.7781 23.2695 43.5394 23.4033C43.3008 23.5371 43.1099 23.7224 42.9786 23.9796C42.8474 24.2266 42.7877 24.5354 42.7877 24.8853V26.5524C42.7877 26.8818 42.8593 27.1699 42.9906 27.4066C43.1218 27.633 43.3127 27.8183 43.5633 27.9418ZM43.7542 25.2969V24.8338C43.7542 24.5662 43.8139 24.3604 43.9332 24.2163C44.0406 24.0723 44.2076 24.0002 44.4224 24.0002C44.6491 24.0002 44.8162 24.0723 44.9355 24.206C45.0548 24.3398 45.1144 24.5354 45.1144 24.7823V25.2969H43.7542ZM36.4519 23.2901H35.4496H35.1036H34.4354V26.7994C34.4354 26.9744 34.3996 27.0979 34.3161 27.1802C34.2326 27.2625 34.1132 27.3037 33.9581 27.3037H33.9701V28.0961H34.0775C34.3757 28.0961 34.6383 28.055 34.8411 27.9623C35.044 27.8697 35.1871 27.7359 35.2945 27.561C35.4019 27.3757 35.4496 27.1596 35.4496 26.8818V24.1134H36.4519V28.055H37.4661V23.2901H36.953H36.4519ZM27.8967 23.2901H26.7394H26.3337H25.7251V28.055H26.7394V24.1134H27.8967V28.055H28.911V23.2901H28.4814H27.8967ZM20.3081 23.2901H19.3297L18.5064 25.76L17.6592 23.2901H16.6808V28.055H17.5876V25.2745L18.1723 26.7788H18.8166L19.4013 25.1421V28.055H20.3081V23.2901ZM10.1898 27.139C10.0944 27.2317 9.95119 27.2831 9.77221 27.2831C9.59324 27.2831 9.45005 27.2317 9.35459 27.139C9.2472 27.0361 9.19947 26.9023 9.19947 26.7274V24.6074C9.19947 24.4324 9.2472 24.2987 9.35459 24.206C9.45005 24.1134 9.59324 24.062 9.77221 24.062C9.95119 24.062 10.0825 24.1134 10.1898 24.206C10.2972 24.2987 10.345 24.4324 10.345 24.6074V26.7274C10.345 26.9023 10.2853 27.0464 10.1898 27.139ZM8.92506 27.9623C9.1637 28.0755 9.45006 28.127 9.78416 28.127C10.1183 28.127 10.4046 28.0755 10.6433 27.952C10.8819 27.8491 11.0608 27.6948 11.1802 27.4889C11.2995 27.2831 11.3591 27.0361 11.3591 26.748V24.5559C11.3591 24.2678 11.2995 24.0208 11.1802 23.815C11.0608 23.6091 10.8819 23.4548 10.6433 23.3519C10.4046 23.249 10.1183 23.1975 9.78416 23.1975C9.45006 23.1975 9.1637 23.249 8.92506 23.3519C8.68642 23.4548 8.50742 23.6091 8.37617 23.815C8.24492 24.0208 8.18529 24.2678 8.18529 24.5559V26.7377C8.18529 27.0361 8.24492 27.2831 8.37617 27.4889C8.50742 27.6948 8.68642 27.8491 8.92506 27.9623ZM1.01422 26.1099V28.055H0V23.2901H1.01422V25.2866H1.60115L2.44606 23.2901H3.48413L2.43336 25.6885L3.67504 28.0652H2.60114L1.59097 26.1099H1.01422Z" fill="white"/>
</g>
</svg>
