<svg width="293" height="40" viewBox="0 0 293 40" fill="none" xmlns="http://www.w3.org/2000/svg">
<path fill-rule="evenodd" clip-rule="evenodd" d="M63.2784 10.5245C63.2784 10.895 63.326 11.2517 63.4055 11.5673C63.4849 11.8829 63.5962 12.1711 63.7551 12.4455C63.914 12.7062 64.0888 12.9395 64.2954 13.1453C64.502 13.3511 64.7403 13.5158 64.9946 13.653C65.2488 13.7903 65.5349 13.9 65.8368 13.9686C66.1387 14.0372 66.4884 14.0784 66.8539 14.0784C67.4259 14.0784 67.9185 13.9961 68.3635 13.8314C68.7925 13.6667 69.1581 13.4198 69.4759 13.0904C69.7937 12.7474 70.0321 12.3632 70.191 11.9104C70.3499 11.4576 70.4294 10.9362 70.4294 10.3736C70.4294 9.97564 70.3976 9.61887 70.3181 9.27583C70.2387 8.94651 70.1274 8.63092 69.9844 8.35649C69.8255 8.08205 69.6507 7.83505 69.4441 7.61551C69.2375 7.40968 69.015 7.2313 68.7608 7.08036C68.5065 6.94315 68.2205 6.83338 67.9185 6.76477C67.6007 6.69617 67.267 6.655 66.8856 6.655C66.2818 6.655 65.7733 6.73734 65.3283 6.902C65.1059 6.98433 64.8993 7.08036 64.7245 7.20385C64.5497 7.32735 64.3749 7.46458 64.2318 7.62924C64.0729 7.7939 63.9458 7.986 63.8187 8.1781C63.7074 8.38392 63.6121 8.60346 63.5326 8.83673C63.4532 9.08372 63.3896 9.33072 63.3578 9.61887C63.2942 9.90703 63.2784 10.2089 63.2784 10.5245ZM60.9424 10.5108C60.9424 9.98935 60.9901 9.49537 61.1013 9.02883C61.2125 8.5623 61.3714 8.10949 61.5939 7.68412C61.8164 7.25875 62.0865 6.87455 62.4202 6.53151C62.7539 6.18847 63.1512 5.88659 63.5962 5.62588C64.0411 5.36516 64.5496 5.17307 65.1058 5.03586C65.6461 4.91236 66.25 4.84375 66.8856 4.84375C67.3147 4.84375 67.7279 4.87119 68.1251 4.93979C68.5224 5.0084 68.9038 5.10446 69.2693 5.24167C69.6348 5.37889 69.9685 5.52983 70.2863 5.72194C70.6042 5.91404 70.8902 6.11984 71.1603 6.36683C71.4305 6.61382 71.653 6.87455 71.8596 7.17643C72.0661 7.46458 72.241 7.78018 72.384 8.12322C72.527 8.46626 72.6382 8.82302 72.7018 9.20722C72.7653 9.5777 72.813 9.97564 72.813 10.3736C72.813 10.9362 72.7494 11.4576 72.6382 11.9378C72.527 12.4181 72.3363 12.8709 72.0979 13.2688C71.8595 13.6805 71.5576 14.0372 71.1922 14.3665C70.8425 14.6821 70.4135 14.9566 69.9367 15.1899C69.46 15.4231 68.9833 15.5878 68.4589 15.6975C67.9504 15.8073 67.4101 15.8759 66.8698 15.8759C66.3136 15.8759 65.7574 15.821 65.2488 15.6975C64.7244 15.574 64.2318 15.3957 63.771 15.1624C63.3101 14.9291 62.897 14.641 62.5474 14.3117C62.1978 13.9823 61.8959 13.5981 61.6575 13.1865C61.4191 12.7748 61.2443 12.3358 61.1172 11.8967C60.99 11.4439 60.9424 10.991 60.9424 10.5108ZM35.5484 9.46794H38.4565C38.9491 9.46794 39.3623 9.42677 39.696 9.35816C39.9979 9.28955 40.2521 9.1935 40.4111 9.08373C40.5859 8.96024 40.713 8.82302 40.7925 8.65836C40.8719 8.50743 40.9196 8.31532 40.9196 8.12322C40.9196 7.27248 40.2204 6.8471 38.8219 6.8471H35.5325V9.46794H35.5484ZM33.2283 15.382V5.04957H38.7425C39.2351 5.04957 39.6483 5.06329 40.0138 5.09073C40.3952 5.11818 40.6971 5.17306 40.9196 5.24167C41.1421 5.31028 41.3645 5.39261 41.5552 5.47494C41.7459 5.57099 41.9207 5.66703 42.0796 5.79053C42.2386 5.9003 42.3816 6.03752 42.5246 6.20218C42.6517 6.35312 42.7788 6.5315 42.8901 6.73732C43.0013 6.94315 43.0967 7.16269 43.1602 7.39596C43.2238 7.62922 43.2397 7.86251 43.2397 8.12322C43.2397 9.61888 42.3816 10.5794 40.6495 11.0048C40.8084 11.1145 40.9672 11.238 41.1103 11.3752C41.301 11.5536 41.4758 11.732 41.6347 11.9104C41.8095 12.1025 41.9684 12.2946 42.1114 12.5004L44.511 15.725H41.6506L39.9979 13.5021C39.8539 13.3051 39.7189 13.1317 39.5929 12.9699C39.5522 12.9175 39.5123 12.8664 39.4735 12.816C39.4071 12.7357 39.3434 12.6578 39.2826 12.5833C39.1978 12.4796 39.1184 12.3824 39.0444 12.2946C38.9173 12.1436 38.7902 12.0202 38.6631 11.9104C38.5518 11.8006 38.4247 11.7045 38.3135 11.6222C38.2292 11.5599 38.145 11.5133 38.0677 11.4705C38.0429 11.4568 38.0188 11.4434 37.9956 11.4301C37.9003 11.389 37.8208 11.3615 37.7414 11.3478C37.716 11.3441 37.6895 11.3395 37.6619 11.3347C37.5857 11.3214 37.501 11.3066 37.4077 11.3066C37.2647 11.2929 37.1059 11.2929 36.8995 11.2929H36.8991H35.5166V15.725H33.2124V15.382H33.2283ZM8.19981 9.81098H10.7901C12.3633 9.81098 13.1578 9.31699 13.1578 8.32904C13.1578 8.19182 13.142 8.06833 13.1261 7.97228C13.1102 7.87639 13.0785 7.7805 13.0467 7.68461L13.0467 7.6846L13.0466 7.68412C13.0148 7.60179 12.9671 7.51946 12.9195 7.45085C12.8718 7.38225 12.8082 7.31364 12.7288 7.25875C12.6652 7.20387 12.5857 7.14898 12.5063 7.10781L12.5063 7.1078C12.4109 7.06664 12.3156 7.02548 12.2044 6.99804C12.109 6.97059 11.9342 6.94315 11.7117 6.92943C11.4575 6.9157 11.1556 6.902 10.7901 6.902H8.19981V9.81098ZM5.86382 15.382V5.04957H10.6311C10.9488 5.04957 11.2506 5.06328 11.5523 5.077H11.5524L11.5528 5.07702C11.8389 5.09074 12.1249 5.11817 12.3792 5.14561C12.6493 5.17305 12.9036 5.22795 13.1578 5.31028C13.4121 5.39261 13.6663 5.48867 13.8888 5.61216C14.1272 5.73566 14.3497 5.90031 14.5563 6.07869C14.7469 6.25707 14.9218 6.46289 15.0648 6.69616C15.2078 6.92943 15.319 7.17642 15.3985 7.45085C15.4779 7.71157 15.5097 7.99972 15.5097 8.28787C15.5097 10.5382 13.9206 11.6634 10.7583 11.6634H8.16805V15.725H5.86382V15.382ZM0 0H78.2478V20.7745H0V0ZM283.338 11.8553L285.182 11.7181L285.229 12.0337C285.277 12.3904 285.388 12.6923 285.547 12.953C285.706 13.2 285.913 13.4058 286.183 13.5568C286.469 13.7214 286.771 13.8449 287.12 13.9273C287.47 14.0096 287.851 14.0508 288.264 14.0508C288.709 14.0508 289.091 14.0096 289.424 13.941C289.726 13.8724 289.981 13.7626 290.187 13.6254C290.378 13.4882 290.537 13.3372 290.616 13.1863C290.712 13.0354 290.759 12.8707 290.759 12.6786C290.759 12.5551 290.743 12.4316 290.696 12.3356C290.648 12.2258 290.585 12.1297 290.489 12.0474C290.394 11.9514 290.283 11.869 290.155 11.7867C290.012 11.7044 289.854 11.6357 289.679 11.5809C289.488 11.526 289.202 11.4437 288.852 11.3613C288.487 11.279 288.042 11.1829 287.518 11.0869C287.12 11.0046 286.755 10.9222 286.421 10.8399C286.072 10.7439 285.77 10.6478 285.483 10.538C285.182 10.4283 284.911 10.291 284.673 10.1264C284.435 9.96171 284.212 9.76961 284.022 9.55007C283.831 9.33052 283.688 9.08353 283.592 8.82282C283.497 8.56211 283.449 8.27396 283.449 7.97209C283.449 7.65649 283.497 7.35462 283.592 7.0939C283.688 6.81947 283.815 6.55876 284.006 6.33921C284.18 6.11967 284.419 5.91384 284.689 5.73546C284.959 5.55708 285.261 5.40613 285.611 5.28264C285.96 5.15915 286.326 5.06308 286.707 4.99448C287.089 4.92587 287.502 4.89844 287.915 4.89844C288.646 4.89844 289.297 4.96705 289.869 5.11799C290.457 5.26893 290.95 5.50219 291.363 5.80407C291.776 6.10594 292.078 6.4627 292.301 6.87435C292.523 7.27228 292.635 7.7251 292.666 8.20535L292.682 8.53466L290.473 8.67188L290.426 8.35629C290.362 7.80743 290.124 7.39578 289.742 7.13507C289.345 6.86064 288.757 6.72341 287.978 6.72341C287.168 6.72341 286.564 6.83318 286.183 7.03901C285.849 7.23111 285.69 7.50554 285.69 7.88974C285.69 7.99951 285.706 8.09557 285.754 8.19162C285.785 8.27395 285.849 8.35629 285.928 8.43862C286.008 8.52095 286.119 8.60328 286.23 8.65817C286.342 8.72678 286.469 8.78166 286.612 8.82282C286.771 8.87771 286.977 8.93259 287.232 8.98748C287.341 9.00973 287.456 9.03424 287.577 9.06009C287.754 9.09799 287.945 9.13879 288.153 9.17958C288.805 9.30307 289.361 9.42657 289.774 9.52262C290.219 9.63239 290.585 9.74218 290.823 9.83823C291.061 9.93428 291.284 10.044 291.49 10.1538C291.697 10.2636 291.872 10.4008 292.031 10.538C292.19 10.6752 292.333 10.8124 292.46 10.9771C292.587 11.128 292.682 11.2927 292.762 11.4574C292.841 11.622 292.905 11.8004 292.936 11.9925C292.984 12.1846 293 12.3767 293 12.5688C293 13.0902 292.889 13.5568 292.65 13.9684C292.412 14.3801 292.062 14.7368 291.586 15.0387C291.141 15.3269 290.632 15.5464 290.092 15.6836C289.552 15.8209 288.948 15.9032 288.312 15.9032C287.47 15.9032 286.739 15.8208 286.087 15.6562C285.42 15.4915 284.864 15.2308 284.419 14.8878C283.958 14.5447 283.624 14.1468 283.37 13.7077C283.132 13.2549 283.004 12.7609 282.973 12.2121L282.957 11.8965L283.338 11.8553ZM256.021 11.8553L257.865 11.7181L257.912 12.0337C257.96 12.3904 258.071 12.6923 258.23 12.953C258.389 13.2 258.596 13.4058 258.866 13.5568C259.152 13.7214 259.454 13.8449 259.804 13.9273C260.153 14.0096 260.534 14.0508 260.948 14.0508C261.393 14.0508 261.774 14.0096 262.108 13.941C262.41 13.8724 262.664 13.7626 262.871 13.6254C263.061 13.4882 263.22 13.3372 263.3 13.1863C263.395 13.0354 263.443 12.8707 263.443 12.6786C263.443 12.5551 263.427 12.4316 263.379 12.3356C263.331 12.2258 263.268 12.1297 263.172 12.0474C263.077 11.9514 262.966 11.869 262.839 11.7867C262.696 11.7044 262.537 11.6357 262.362 11.5809C262.171 11.526 261.885 11.4437 261.536 11.3613C261.17 11.279 260.725 11.1829 260.201 11.0869C259.804 11.0046 259.438 10.9222 259.088 10.8399C258.739 10.7439 258.437 10.6478 258.151 10.538C257.849 10.4283 257.579 10.291 257.34 10.1264C257.102 9.96171 256.88 9.76961 256.689 9.55007C256.498 9.33052 256.355 9.08353 256.26 8.82282C256.164 8.56211 256.117 8.27396 256.117 7.97209C256.117 7.65649 256.164 7.35462 256.26 7.0939C256.355 6.81947 256.482 6.55876 256.673 6.33921C256.848 6.11967 257.086 5.91384 257.356 5.73546C257.626 5.55708 257.928 5.40613 258.278 5.28264C258.628 5.15915 258.993 5.06308 259.374 4.99448C259.756 4.92587 260.169 4.89844 260.582 4.89844C261.313 4.89844 261.981 4.96705 262.537 5.11799C263.125 5.26893 263.617 5.50219 264.031 5.80407C264.444 6.10594 264.746 6.4627 264.968 6.87435C265.191 7.27228 265.302 7.7251 265.334 8.20535L265.35 8.53466L263.141 8.67188L263.093 8.35629C263.029 7.80743 262.791 7.39578 262.41 7.13507C262.012 6.86064 261.424 6.72341 260.646 6.72341C259.835 6.72341 259.231 6.83318 258.85 7.03901C258.516 7.23111 258.357 7.50554 258.357 7.88974C258.357 7.99951 258.373 8.09557 258.421 8.19162C258.453 8.27395 258.516 8.35629 258.596 8.43862C258.675 8.52095 258.786 8.60328 258.898 8.65817C259.009 8.72678 259.136 8.78166 259.279 8.82282C259.438 8.87771 259.645 8.93259 259.899 8.98748C260.008 9.00973 260.123 9.03424 260.244 9.06009L260.245 9.06018C260.422 9.09806 260.613 9.13882 260.82 9.17958C261.472 9.30307 262.028 9.42657 262.441 9.52262C262.886 9.63239 263.252 9.74218 263.49 9.83823C263.729 9.93428 263.951 10.044 264.158 10.1538C264.364 10.2636 264.539 10.4008 264.698 10.538C264.857 10.6752 265 10.8124 265.127 10.9771C265.254 11.128 265.349 11.2927 265.429 11.4574C265.508 11.622 265.572 11.8004 265.604 11.9925C265.651 12.1846 265.667 12.3767 265.667 12.5688C265.667 13.0902 265.556 13.5568 265.318 13.9684C265.079 14.3801 264.73 14.7368 264.269 15.0387C263.824 15.3269 263.315 15.5464 262.775 15.6836C262.235 15.8209 261.631 15.9032 260.995 15.9032C260.153 15.9032 259.422 15.8208 258.771 15.6562C258.103 15.4915 257.547 15.2308 257.102 14.8878C256.641 14.5447 256.307 14.1468 256.053 13.7077C255.815 13.2549 255.688 12.7609 255.656 12.2121L255.64 11.8965L256.021 11.8553ZM228.927 15.3818V5.04937H238.08V6.9018H231.231V9.28935H237.651V11.1418H231.231V13.8724H238.351V15.7248H228.927V15.3818ZM200.673 15.3818V5.04937H202.834L208.332 12.1435V5.04937H210.589V15.7248H208.412L202.897 8.61701V15.7248H200.657V15.3818H200.673ZM175.088 15.3818V5.04937H177.392V13.8724H183.097V15.7248H175.088V15.3818ZM149.567 15.3818V5.04937H151.871V13.8724H157.576V15.7248H149.567V15.3818ZM122.346 15.3818V5.04937H131.499V6.9018H124.65V9.28935H131.07V11.1418H124.65V13.8724H131.769V15.7248H122.346V15.3818ZM92.5338 15.4641L89.3238 5.04937H91.7075L93.5508 11.869L93.6939 12.4453C94.1621 10.8006 94.723 9.14351 95.281 7.49474L95.2811 7.49439L95.2815 7.49339C95.5566 6.68045 95.8311 5.86953 96.0934 5.06309H98.5089L100.241 10.3596C100.464 11.032 100.638 11.6632 100.797 12.2669L100.813 12.3218C101.481 9.90683 102.18 7.4781 102.879 5.06309H105.215C104.838 6.2491 104.464 7.43511 104.089 8.62112C103.341 10.989 102.592 13.3569 101.83 15.7248H99.7325L97.2694 7.94464L94.7586 15.7248H92.5815L92.5338 15.4641ZM289.631 37.2557C289.965 37.4203 290.362 37.5027 290.839 37.5027C291.522 37.5027 292.062 37.3517 292.428 37.0361C292.809 36.7068 293 36.2677 293 35.6777V35.6365H291.713V35.6777C291.713 35.9109 291.649 36.1031 291.49 36.2266C291.332 36.35 291.125 36.4187 290.839 36.4187C290.537 36.4187 290.314 36.3363 290.14 36.1579C289.965 35.9796 289.885 35.7463 289.885 35.4307V34.6897H292.984V33.0157C292.984 32.5766 292.905 32.1924 292.73 31.8905C292.555 31.5886 292.301 31.3554 291.967 31.1907C291.633 31.0261 291.236 30.9437 290.775 30.9437C290.314 30.9437 289.917 31.0261 289.599 31.2044C289.282 31.3828 289.027 31.6298 288.852 31.9728C288.678 32.3022 288.598 32.7138 288.598 33.1804V35.4032C288.598 35.8423 288.694 36.2265 288.868 36.5421C289.043 36.844 289.297 37.091 289.631 37.2557ZM289.885 33.7292V33.1117C289.885 32.755 289.965 32.4806 290.124 32.2885C290.267 32.0964 290.489 32.0003 290.775 32.0003C291.077 32.0003 291.3 32.0963 291.459 32.2747C291.618 32.4531 291.697 32.7138 291.697 33.0431V33.7292H289.885ZM280.271 33.6079L278.348 37.4066H277.268V31.0535H278.523V34.851L280.446 31.0398H281.527V37.3929H280.271V33.6079ZM267.161 34.8407V37.4066H265.81V31.0535H267.161V33.7429H268.703V31.0535H270.053V37.4066H268.703V34.8407H267.161ZM254.575 37.0636C254.877 37.3517 255.338 37.5027 255.942 37.5027C256.276 37.5027 256.546 37.4478 256.752 37.3517C256.975 37.2419 257.134 37.091 257.245 36.8715C257.256 36.8496 257.267 36.8273 257.277 36.8046V37.4203H258.596V32.7687C258.596 32.3845 258.516 32.0552 258.342 31.7807C258.167 31.5063 257.928 31.3005 257.595 31.1633C257.261 31.0123 256.88 30.9437 256.419 30.9437C255.735 30.9437 255.211 31.1084 254.83 31.424C254.464 31.7396 254.273 32.1924 254.273 32.7687H255.592C255.592 32.5217 255.656 32.3159 255.799 32.1787C255.942 32.0415 256.133 31.9728 256.387 31.9728C256.673 31.9728 256.895 32.0415 257.054 32.1787C257.213 32.3159 257.293 32.508 257.293 32.7687H257.277V33.5783H256.403C255.64 33.5783 255.068 33.7566 254.687 34.1134C254.305 34.4702 254.115 35.0053 254.115 35.7189C254.115 36.3226 254.273 36.7617 254.575 37.0636ZM257.277 34.6211H256.403C256.069 34.6211 255.815 34.7172 255.656 34.8956C255.497 35.0739 255.402 35.3484 255.402 35.7189C255.402 35.9659 255.465 36.1579 255.624 36.2814C255.767 36.4049 255.99 36.4598 256.276 36.4598C256.609 36.4598 256.864 36.3775 257.023 36.2128C257.197 36.0482 257.277 35.8149 257.277 35.4856V34.6211ZM244.373 31.0535H243.023V37.4066H243.881V37.4341H245.549C246.105 37.4341 246.55 37.3106 246.852 37.0498C247.154 36.8028 247.313 36.4461 247.313 35.9796V35.3484C247.313 34.9916 247.218 34.7172 246.995 34.4976C246.789 34.2781 246.487 34.1409 246.09 34.086C246.439 34.0311 246.709 33.9076 246.9 33.7018C247.091 33.496 247.186 33.2489 247.186 32.9333V32.3982C247.186 31.9866 247.043 31.6573 246.741 31.424C246.455 31.1907 246.042 31.0809 245.502 31.0809H244.373V31.0535ZM244.373 32.1787H245.311C245.47 32.1787 245.597 32.2198 245.692 32.2885C245.788 32.3571 245.835 32.4668 245.835 32.5903V32.9333C245.835 33.1255 245.772 33.2627 245.66 33.3725C245.533 33.4685 245.374 33.5234 245.152 33.5234H244.373V32.1787ZM244.373 34.6211H245.152C245.39 34.6211 245.597 34.676 245.74 34.7995C245.883 34.923 245.962 35.0877 245.962 35.3072V35.7737C245.962 35.9521 245.915 36.0756 245.819 36.1717C245.724 36.2677 245.597 36.3089 245.422 36.3089H244.373V34.6211ZM234.394 36.1854C234.251 36.3089 234.06 36.3775 233.822 36.3775C233.583 36.3775 233.393 36.3089 233.265 36.1854C233.122 36.0482 233.059 35.8698 233.059 35.6365V32.8099C233.059 32.5766 233.122 32.3982 233.265 32.2747C233.393 32.1512 233.583 32.0826 233.822 32.0826C234.076 32.0826 234.251 32.1512 234.394 32.2747C234.537 32.3982 234.6 32.5766 234.6 32.8099V35.6365C234.6 35.8698 234.521 36.0619 234.394 36.1854ZM232.693 37.2831C233.011 37.4341 233.393 37.5027 233.837 37.5027C234.282 37.5027 234.664 37.434 234.982 37.2694C235.3 37.1322 235.538 36.9264 235.697 36.6519C235.856 36.3775 235.935 36.0482 235.935 35.664V32.7412C235.935 32.357 235.856 32.0277 235.697 31.7533C235.538 31.4789 235.3 31.273 234.982 31.1358C234.664 30.9986 234.282 30.93 233.837 30.93C233.393 30.93 233.011 30.9986 232.693 31.1358C232.376 31.273 232.137 31.4789 231.962 31.7533C231.788 32.0277 231.708 32.357 231.708 32.7412V35.6502C231.708 36.0482 231.788 36.3775 231.962 36.6519C232.137 36.9264 232.376 37.1322 232.693 37.2831ZM222.158 37.2145C222.412 37.4066 222.714 37.5027 223.063 37.5027C223.429 37.5027 223.731 37.4203 223.985 37.2557C224.239 37.1047 224.43 36.8715 224.573 36.5559C224.716 36.254 224.78 35.8835 224.78 35.4444V32.9608C224.78 32.5354 224.716 32.1649 224.589 31.8631C224.462 31.5612 224.271 31.3279 224.017 31.177C223.778 31.026 223.477 30.9437 223.127 30.9437C222.793 30.9437 222.491 31.0398 222.205 31.2456C221.998 31.3947 221.833 31.587 221.697 31.8224V31.0535H220.346V40H221.697V36.6492C221.809 36.8848 221.965 37.0693 222.158 37.2145ZM221.697 32.9883C221.697 32.7824 221.728 32.6178 221.792 32.4668C221.871 32.3159 221.967 32.2061 222.094 32.1238C222.221 32.0415 222.38 32.0003 222.555 32.0003C222.825 32.0003 223.032 32.0826 223.19 32.261C223.333 32.4394 223.413 32.6864 223.413 33.002V35.3895C223.413 35.7189 223.349 35.9796 223.19 36.1579C223.032 36.3363 222.825 36.4324 222.555 36.4324C222.38 36.4324 222.221 36.3912 222.094 36.3089C221.967 36.2266 221.856 36.1168 221.792 35.9658C221.728 35.8149 221.697 35.6228 221.697 35.417V32.9883ZM211.876 33.6119V37.4066H213.131V31.0535H212.067L210.144 34.8646V31.0672H208.888V37.4203H209.969L211.876 33.6119ZM199.417 31.0535H198.098V32.1512H199.417V37.4066H200.768V32.1512H202.087V31.0535H200.768H199.417ZM188.627 34.8132V37.4066H187.277V31.0535H188.627V33.7155H189.409L190.534 31.0535H191.917L190.502 34.2532L192.155 37.4203H190.725L189.38 34.8132H188.627ZM176.82 37.2557C177.154 37.4203 177.551 37.5027 178.028 37.5027C178.711 37.5027 179.252 37.3517 179.617 37.0361C179.998 36.7068 180.189 36.2677 180.189 35.6777V35.6365H178.902V35.6777C178.902 35.9109 178.838 36.1031 178.679 36.2266C178.521 36.35 178.314 36.4187 178.028 36.4187C177.726 36.4187 177.504 36.3363 177.329 36.1579C177.154 35.9796 177.074 35.7463 177.074 35.4307V34.6897H180.173V33.0157C180.173 32.5766 180.094 32.1924 179.919 31.8905C179.744 31.5886 179.49 31.3554 179.156 31.1907C178.822 31.0261 178.425 30.9437 177.964 30.9437C177.504 30.9437 177.106 31.0261 176.788 31.2044C176.471 31.3828 176.216 31.6298 176.042 31.9728C175.867 32.3022 175.787 32.7138 175.787 33.1804V35.4032C175.787 35.8423 175.883 36.2265 176.057 36.5421C176.232 36.844 176.486 37.091 176.82 37.2557ZM177.074 33.7292V33.1117C177.074 32.755 177.154 32.4806 177.313 32.2885C177.456 32.0964 177.678 32.0003 177.964 32.0003C178.266 32.0003 178.489 32.0963 178.648 32.2747C178.807 32.4531 178.886 32.7138 178.886 33.0431V33.7292H177.074ZM167.301 36.1854C167.174 36.3089 166.984 36.3775 166.745 36.3775C166.491 36.3775 166.3 36.3089 166.189 36.1854C166.046 36.0482 165.983 35.8698 165.983 35.6365V32.8099C165.983 32.5766 166.046 32.3982 166.189 32.2747C166.316 32.1512 166.507 32.0826 166.745 32.0826C166.984 32.0826 167.158 32.1512 167.301 32.2747C167.444 32.3982 167.508 32.5766 167.508 32.8099V35.6365C167.508 35.8698 167.429 36.0619 167.301 36.1854ZM165.617 37.2831C165.935 37.4341 166.316 37.5027 166.761 37.5027C167.19 37.5027 167.572 37.434 167.905 37.2694C168.223 37.1322 168.462 36.9264 168.62 36.6519C168.779 36.3775 168.859 36.0482 168.859 35.664V32.7412C168.859 32.357 168.779 32.0277 168.62 31.7533C168.462 31.4789 168.223 31.273 167.905 31.1358C167.588 30.9986 167.206 30.93 166.761 30.93C166.316 30.93 165.935 30.9986 165.617 31.1358C165.299 31.273 165.061 31.4789 164.886 31.7533C164.711 32.0277 164.632 32.357 164.632 32.7412V35.6502C164.632 36.0482 164.711 36.3775 164.886 36.6519C165.061 36.9264 165.299 37.1322 165.617 37.2831ZM155.065 37.2145C155.32 37.4066 155.622 37.5027 155.971 37.5027C156.337 37.5027 156.654 37.4203 156.909 37.2557C157.163 37.1047 157.354 36.8715 157.497 36.5559C157.64 36.254 157.703 35.8835 157.703 35.4444V32.9608C157.703 32.5354 157.64 32.1649 157.513 31.8631C157.385 31.5612 157.195 31.3279 156.94 31.177C156.702 31.026 156.4 30.9437 156.051 30.9437C155.701 30.9437 155.399 31.0398 155.113 31.2456C154.914 31.3889 154.753 31.5721 154.62 31.7952V31.0535H153.27V40H154.62V36.6816C154.732 36.9018 154.882 37.076 155.065 37.2145ZM154.62 35.6604C154.636 35.7728 154.662 35.8765 154.7 35.9658C154.763 36.1168 154.875 36.2266 155.002 36.3089C155.129 36.3912 155.288 36.4324 155.463 36.4324C155.733 36.4324 155.939 36.3363 156.098 36.1579C156.257 35.9796 156.321 35.7189 156.321 35.3895V33.002C156.321 32.6864 156.241 32.4394 156.098 32.261C155.939 32.0826 155.733 32.0003 155.463 32.0003C155.288 32.0003 155.129 32.0415 155.002 32.1238C154.875 32.2061 154.779 32.3159 154.7 32.4668C154.662 32.5561 154.636 32.6502 154.62 32.7548V35.6604ZM144.704 31.0535H143.163H142.607H141.812V37.4066H143.163V32.1512H144.704V37.4066H146.055V31.0535H145.467H144.704ZM114.146 37.2557C114.479 37.4203 114.877 37.5027 115.353 37.5027C116.053 37.5027 116.593 37.3517 116.943 37.0361C117.324 36.7068 117.515 36.2677 117.515 35.6777V35.6365H116.228V35.6777C116.228 35.9109 116.164 36.1031 116.005 36.2266C115.846 36.35 115.64 36.4187 115.353 36.4187C115.052 36.4187 114.829 36.3363 114.654 36.1579C114.479 35.9796 114.4 35.7463 114.4 35.4307V34.6897H117.499V33.0157C117.499 32.5766 117.419 32.1924 117.245 31.8905C117.07 31.5886 116.815 31.3554 116.482 31.1907C116.148 31.0261 115.751 30.9437 115.29 30.9437C114.829 30.9437 114.432 31.0261 114.114 31.2044C113.796 31.3828 113.542 31.6298 113.367 31.9728C113.192 32.3022 113.113 32.7138 113.113 33.1804V35.4032C113.113 35.8423 113.208 36.2265 113.383 36.5421C113.558 36.844 113.812 37.091 114.146 37.2557ZM114.4 33.7292V33.1117C114.4 32.755 114.479 32.4806 114.638 32.2885C114.781 32.0964 115.004 32.0003 115.29 32.0003C115.592 32.0003 115.814 32.0963 115.973 32.2747C116.132 32.4531 116.212 32.7138 116.212 33.0431V33.7292H114.4ZM104.643 36.1854C104.5 36.3089 104.309 36.3775 104.071 36.3775C103.832 36.3775 103.642 36.3089 103.515 36.1854C103.372 36.0482 103.308 35.8698 103.308 35.6365V32.8099C103.308 32.5766 103.372 32.3982 103.515 32.2747C103.642 32.1512 103.832 32.0826 104.071 32.0826C104.325 32.0826 104.5 32.1512 104.643 32.2747C104.786 32.3982 104.849 32.5766 104.849 32.8099V35.6365C104.849 35.8698 104.77 36.0619 104.643 36.1854ZM102.943 37.2831C103.26 37.4341 103.642 37.5027 104.087 37.5027C104.532 37.5027 104.913 37.434 105.231 37.2694C105.549 37.1322 105.787 36.9264 105.946 36.6519C106.105 36.3775 106.184 36.0482 106.184 35.664V32.7412C106.184 32.357 106.105 32.0277 105.946 31.7533C105.787 31.4789 105.549 31.273 105.231 31.1358C104.913 30.9986 104.532 30.93 104.087 30.93C103.642 30.93 103.26 30.9986 102.943 31.1358C102.625 31.273 102.386 31.4789 102.212 31.7533C102.037 32.0277 101.957 32.357 101.957 32.7412V35.6502C101.957 36.0482 102.037 36.3775 102.212 36.6519C102.386 36.9264 102.625 37.1322 102.943 37.2831ZM91.9936 34.8407V37.4066H90.6428V31.0535H91.9936V33.7429H93.535V31.0535H94.8857V37.4066H93.535V34.8407H91.9936ZM80.3931 37.2831C80.7268 37.4341 81.1241 37.5027 81.6008 37.5027C82.0775 37.5027 82.4748 37.434 82.7926 37.2694C83.1263 37.1185 83.3806 36.8989 83.5554 36.6108C83.7461 36.3363 83.8255 35.9796 83.8255 35.5816V35.3758H82.4907V35.5816C82.4907 35.8423 82.4112 36.0482 82.2523 36.1991C82.0934 36.35 81.8868 36.4187 81.6008 36.4187C81.3148 36.4187 81.0923 36.35 80.9333 36.2128C80.7744 36.0756 80.695 35.8835 80.695 35.6228V32.9333C80.695 32.6589 80.7744 32.4257 80.9333 32.2747C81.0923 32.1238 81.3148 32.0415 81.6008 32.0415C81.8868 32.0415 82.0934 32.1101 82.2523 32.2747C82.4112 32.4257 82.4907 32.6589 82.4907 32.9471V33.1529H83.8255V32.9471C83.8255 32.5217 83.7461 32.1649 83.5713 31.8631C83.3965 31.5612 83.1422 31.3279 82.8085 31.177C82.4748 31.026 82.0775 30.9437 81.6008 30.9437C81.1241 30.9437 80.7268 31.026 80.3931 31.177C80.0593 31.3279 79.8051 31.5612 79.6303 31.8494C79.4555 32.1375 79.376 32.4943 79.376 32.9196V35.6091C79.376 36.007 79.4555 36.3501 79.6303 36.6382C79.8051 36.9264 80.0593 37.1322 80.3931 37.2831ZM69.8255 34.8132V37.4066H68.4747V31.0535H69.8255V33.7155H70.5913L71.7165 31.0535H73.099L71.6996 34.2514L73.3533 37.4203H71.9231L70.5777 34.8132H69.8255ZM58.0184 37.2557C58.3521 37.4203 58.7494 37.5027 59.2261 37.5027C59.9094 37.5027 60.4497 37.3517 60.8152 37.0361C61.1966 36.7068 61.3873 36.2677 61.3873 35.6777V35.6365H60.1001V35.6777C60.1001 35.9109 60.0366 36.1031 59.8776 36.2266C59.7187 36.35 59.5121 36.4187 59.2261 36.4187C58.9242 36.4187 58.7017 36.3363 58.5269 36.1579C58.3521 35.9796 58.2727 35.7463 58.2727 35.4307V34.6897H61.3714V33.0157C61.3714 32.5766 61.2919 32.1924 61.1171 31.8905C60.9423 31.5886 60.6881 31.3554 60.3544 31.1907C60.0207 31.0261 59.6234 30.9437 59.1626 30.9437C58.7017 30.9437 58.3044 31.0261 57.9866 31.2044C57.6688 31.3828 57.4145 31.6298 57.2397 31.9728C57.0649 32.3022 56.9855 32.7138 56.9855 33.1804V35.4032C56.9855 35.8423 57.0808 36.2265 57.2556 36.5421C57.4304 36.844 57.6847 37.091 58.0184 37.2557ZM58.2727 33.7292V33.1117C58.2727 32.755 58.3521 32.4806 58.511 32.2885C58.654 32.0964 58.8765 32.0003 59.1626 32.0003C59.4645 32.0003 59.687 32.0963 59.8459 32.2747C60.0048 32.4531 60.0842 32.7138 60.0842 33.0431V33.7292H58.2727ZM48.5473 31.0535H47.2124H46.7516H45.8617V35.7326C45.8617 35.9658 45.814 36.1305 45.7028 36.2403C45.5916 36.35 45.4326 36.4049 45.226 36.4049H45.242V37.4615H45.385C45.7822 37.4615 46.1319 37.4066 46.402 37.2831C46.6722 37.1596 46.8629 36.9813 47.0059 36.748C47.1489 36.501 47.2124 36.2128 47.2124 35.8424V32.1512H48.5473V37.4066H49.898V31.0535H49.2147H48.5473ZM37.1534 31.0535H35.612H35.0717H34.2612V37.4066H35.612V32.1512H37.1534V37.4066H38.5041V31.0535H37.932H37.1534ZM27.0466 31.0535H25.7436L24.6471 34.3467L23.5189 31.0535H22.2158V37.4066H23.4235V33.6993L24.2022 35.7051H25.0602L25.8389 33.5229V37.4066H27.0466V31.0535ZM13.571 36.1854C13.4439 36.3089 13.2532 36.3775 13.0148 36.3775C12.7764 36.3775 12.5857 36.3089 12.4586 36.1854C12.3156 36.0482 12.252 35.8698 12.252 35.6365V32.8099C12.252 32.5766 12.3156 32.3982 12.4586 32.2747C12.5857 32.1512 12.7764 32.0826 13.0148 32.0826C13.2532 32.0826 13.428 32.1512 13.571 32.2747C13.714 32.3982 13.7776 32.5766 13.7776 32.8099V35.6365C13.7776 35.8698 13.6981 36.0619 13.571 36.1854ZM11.8866 37.2831C12.2044 37.4341 12.5858 37.5027 13.0307 37.5027C13.4757 37.5027 13.8571 37.434 14.1749 37.2694C14.4927 37.1322 14.731 36.9264 14.8899 36.6519C15.0489 36.3775 15.1283 36.0482 15.1283 35.664V32.7412C15.1283 32.357 15.0489 32.0277 14.8899 31.7533C14.731 31.4789 14.4927 31.273 14.1749 31.1358C13.8571 30.9986 13.4757 30.93 13.0307 30.93C12.5858 30.93 12.2044 30.9986 11.8866 31.1358C11.5687 31.273 11.3303 31.4789 11.1555 31.7533C10.9807 32.0277 10.9013 32.357 10.9013 32.7412V35.6502C10.9013 36.0482 10.9807 36.3775 11.1555 36.6519C11.3303 36.9264 11.5687 37.1322 11.8866 37.2831ZM1.35075 34.8132V37.4066H0V31.0535H1.35075V33.7155H2.13244L3.2577 31.0535H4.64022L3.24079 34.2514L4.89448 37.4203H3.46425L2.11888 34.8132H1.35075Z" fill="#010005"/>
</svg>
