<svg width="1920" height="110" viewBox="0 0 1920 110" fill="none" xmlns="http://www.w3.org/2000/svg">
<rect width="1920" height="110" fill="white"/>
<g clip-path="url(#clip0_976_1071)">
<rect width="1920" height="90" fill="white"/>
<rect width="1920" height="90" fill="url(#paint0_linear_976_1071)"/>
<rect width="1920" height="120" fill="white"/>
<path d="M105.954 74.072C103.41 74.072 101.538 72.248 101.538 69.8C101.538 67.352 103.41 65.528 105.954 65.528C108.474 65.528 110.358 67.34 110.358 69.8C110.358 72.26 108.474 74.072 105.954 74.072ZM105.954 73.28C107.97 73.28 109.47 71.804 109.47 69.8C109.47 67.796 107.97 66.32 105.954 66.32C103.926 66.32 102.414 67.796 102.414 69.8C102.414 71.804 103.926 73.28 105.954 73.28ZM121.762 65.6H122.638V74H121.762V70.124H116.506V74H115.618V65.6H116.506V69.344H121.762V65.6ZM131.857 74L130.849 71.756H126.169L125.161 74H124.237L128.077 65.6H128.953L132.793 74H131.857ZM126.493 71.036H130.525L128.509 66.524L126.493 71.036ZM137.958 74.072C135.438 74.072 133.566 72.26 133.566 69.8C133.566 67.34 135.438 65.528 137.97 65.528C139.194 65.528 140.298 65.936 141.042 66.752L140.478 67.316C139.794 66.62 138.954 66.32 137.994 66.32C135.966 66.32 134.442 67.808 134.442 69.8C134.442 71.792 135.966 73.28 137.994 73.28C138.954 73.28 139.794 72.98 140.478 72.272L141.042 72.836C140.298 73.652 139.194 74.072 137.958 74.072Z" fill="#565656"/>
<path d="M308.775 65.6H315.843V74H314.967V66.368H309.651V74H308.775V65.6ZM322.361 74.072C319.817 74.072 317.945 72.248 317.945 69.8C317.945 67.352 319.817 65.528 322.361 65.528C324.881 65.528 326.765 67.34 326.765 69.8C326.765 72.26 324.881 74.072 322.361 74.072ZM322.361 73.28C324.377 73.28 325.877 71.804 325.877 69.8C325.877 67.796 324.377 66.32 322.361 66.32C320.333 66.32 318.821 67.796 318.821 69.8C318.821 71.804 320.333 73.28 322.361 73.28ZM332.028 65.6C334.164 65.6 335.46 66.68 335.46 68.48C335.46 70.268 334.164 71.348 332.028 71.348H329.772V74H328.884V65.6H332.028ZM332.004 70.568C333.684 70.568 334.572 69.8 334.572 68.48C334.572 67.136 333.684 66.368 332.004 66.368H329.772V70.568H332.004ZM342.502 65.6V66.368H339.55V74H338.674V66.368H335.722V65.6H342.502ZM352.931 69.788C352.931 72.02 351.263 73.34 348.443 73.424V74.288H347.615V73.424C344.795 73.328 343.127 72.02 343.127 69.788C343.127 67.556 344.795 66.248 347.615 66.152V65.312H348.443V66.152C351.251 66.248 352.931 67.568 352.931 69.788ZM348.443 72.716C350.747 72.62 352.079 71.588 352.079 69.788C352.079 67.988 350.735 66.956 348.443 66.872V72.716ZM343.979 69.788C343.979 71.6 345.335 72.608 347.615 72.716V66.872C345.299 66.968 343.979 67.988 343.979 69.788ZM358.631 74.072C356.087 74.072 354.215 72.248 354.215 69.8C354.215 67.352 356.087 65.528 358.631 65.528C361.151 65.528 363.035 67.34 363.035 69.8C363.035 72.26 361.151 74.072 358.631 74.072ZM358.631 73.28C360.647 73.28 362.147 71.804 362.147 69.8C362.147 67.796 360.647 66.32 358.631 66.32C356.603 66.32 355.091 67.796 355.091 69.8C355.091 71.804 356.603 73.28 358.631 73.28ZM365.808 65.6H371.508V74H370.632V66.368H366.576L366.48 69.176C366.36 72.536 365.832 74.084 364.308 74.084C364.092 74.084 363.888 74.06 363.636 74L363.708 73.208C363.864 73.244 363.972 73.256 364.104 73.256C365.172 73.256 365.58 72.032 365.688 69.2L365.808 65.6ZM374.341 74V65.6H375.217V72.56L380.593 65.6H381.397V74H380.521V67.052L375.145 74H374.341ZM387.916 74.072C385.372 74.072 383.5 72.248 383.5 69.8C383.5 67.352 385.372 65.528 387.916 65.528C390.436 65.528 392.32 67.34 392.32 69.8C392.32 72.26 390.436 74.072 387.916 74.072ZM387.916 73.28C389.932 73.28 391.432 71.804 391.432 69.8C391.432 67.796 389.932 66.32 387.916 66.32C385.888 66.32 384.376 67.796 384.376 69.8C384.376 71.804 385.888 73.28 387.916 73.28Z" fill="#565656"/>
<path d="M564.127 74L561.163 70.148H559.243V74H558.379V65.6H559.243V69.368H561.163L564.007 65.6H564.967L561.847 69.68L565.147 74H564.127ZM570.184 74.072C567.64 74.072 565.768 72.248 565.768 69.8C565.768 67.352 567.64 65.528 570.184 65.528C572.704 65.528 574.588 67.34 574.588 69.8C574.588 72.26 572.704 74.072 570.184 74.072ZM570.184 73.28C572.2 73.28 573.7 71.804 573.7 69.8C573.7 67.796 572.2 66.32 570.184 66.32C568.156 66.32 566.644 67.796 566.644 69.8C566.644 71.804 568.156 73.28 570.184 73.28ZM582.851 65.6H583.727V74H582.851V70.124H577.595V74H576.707V65.6H577.595V69.344H582.851V65.6ZM592.058 65.6V66.368H589.106V74H588.23V66.368H585.278V65.6H592.058ZM599.579 74L598.571 71.756H593.891L592.883 74H591.959L595.799 65.6H596.675L600.515 74H599.579ZM594.215 71.036H598.247L596.231 66.524L594.215 71.036ZM607.873 74L604.909 70.148H602.989V74H602.125V65.6H602.989V69.368H604.909L607.753 65.6H608.713L605.593 69.68L608.893 74H607.873ZM615.683 65.6V66.368H612.731V74H611.855V66.368H608.903V65.6H615.683ZM620.758 68.6C622.738 68.6 623.818 69.5 623.818 71.24C623.818 73.052 622.654 74 620.578 74H617.242V65.6H618.118V68.6H620.758ZM625.27 74V65.6H626.146V74H625.27ZM620.554 73.292C622.102 73.292 622.93 72.596 622.93 71.252C622.93 69.944 622.126 69.32 620.554 69.32H618.118V73.292H620.554Z" fill="#565656"/>
<rect x="96" y="30" width="1728" height="1" fill="#565656"/>
<path d="M1807.5 76.232H1812.56V77H1806.62V68.6H1812.38V69.368H1807.5V72.356H1811.85V73.112H1807.5V76.232ZM1820.79 68.6H1821.66V77H1820.93L1815.53 70.184V77H1814.64V68.6H1815.38L1820.79 75.416V68.6Z" fill="#565656"/>
<g clip-path="url(#clip1_976_1071)">
<g clip-path="url(#clip2_976_1071)">
<g clip-path="url(#clip3_976_1071)">
<path d="M1657.51 65.8651C1653.96 65.8651 1651.1 68.7266 1651.1 72.2743C1651.1 75.822 1653.96 78.6836 1657.51 78.6836C1661.05 78.6836 1663.91 75.822 1663.91 72.2743C1663.91 68.7266 1661.05 65.8651 1657.51 65.8651ZM1657.51 76.4412C1655.21 76.4412 1653.34 74.5725 1653.34 72.2743C1653.34 69.9761 1655.21 68.1075 1657.51 68.1075C1659.8 68.1075 1661.67 69.9761 1661.67 72.2743C1661.67 74.5725 1659.8 76.4412 1657.51 76.4412ZM1665.67 65.6029C1665.67 66.434 1665 67.0978 1664.18 67.0978C1663.35 67.0978 1662.68 66.4285 1662.68 65.6029C1662.68 64.7773 1663.35 64.108 1664.18 64.108C1665 64.108 1665.67 64.7773 1665.67 65.6029ZM1669.92 67.1201C1669.82 65.1176 1669.36 63.3438 1667.9 61.8823C1666.44 60.4208 1664.66 59.9634 1662.66 59.863C1660.6 59.7459 1654.41 59.7459 1652.35 59.863C1650.35 59.9578 1648.57 60.4152 1647.11 61.8767C1645.64 63.3382 1645.19 65.112 1645.09 67.1146C1644.97 69.1785 1644.97 75.3646 1645.09 77.4285C1645.18 79.4311 1645.64 81.2049 1647.11 82.6664C1648.57 84.1278 1650.34 84.5853 1652.35 84.6857C1654.41 84.8028 1660.6 84.8028 1662.66 84.6857C1664.66 84.5908 1666.44 84.1334 1667.9 82.6664C1669.36 81.2049 1669.82 79.4311 1669.92 77.4285C1670.03 75.3646 1670.03 69.184 1669.92 67.1201ZM1667.25 79.643C1666.82 80.7363 1665.97 81.5786 1664.87 82.0193C1663.23 82.672 1659.32 82.5213 1657.51 82.5213C1655.69 82.5213 1651.78 82.6664 1650.14 82.0193C1649.04 81.5842 1648.2 80.7419 1647.76 79.643C1647.11 77.9975 1647.26 74.0928 1647.26 72.2743C1647.26 70.4559 1647.11 66.5456 1647.76 64.9056C1648.2 63.8123 1649.04 62.97 1650.14 62.5293C1651.78 61.8767 1655.69 62.0273 1657.51 62.0273C1659.32 62.0273 1663.23 61.8823 1664.87 62.5293C1665.97 62.9644 1666.81 63.8067 1667.25 64.9056C1667.9 66.5512 1667.75 70.4559 1667.75 72.2743C1667.75 74.0928 1667.9 78.0031 1667.25 79.643Z" fill="#CA8F65"/>
</g>
</g>
</g>
<g clip-path="url(#clip4_976_1071)">
<g clip-path="url(#clip5_976_1071)">
<g clip-path="url(#clip6_976_1071)">
<path d="M1620 71.9C1620 78.8035 1614.4 84.3968 1607.5 84.3968C1606.21 84.3968 1604.97 84.2003 1603.8 83.8375C1604.31 83.006 1605.07 81.6455 1605.35 80.5621C1605.5 79.9776 1606.13 77.5891 1606.13 77.5891C1606.54 78.3651 1607.73 79.0252 1608.99 79.0252C1612.76 79.0252 1615.48 75.5583 1615.48 71.2499C1615.48 67.1229 1612.11 64.034 1607.77 64.034C1602.38 64.034 1599.51 67.652 1599.51 71.5976C1599.51 73.4318 1600.49 75.7145 1602.05 76.4401C1602.28 76.551 1602.41 76.5006 1602.47 76.2739C1602.51 76.1025 1602.72 75.2509 1602.81 74.8579C1602.84 74.7319 1602.83 74.621 1602.73 74.5001C1602.22 73.8702 1601.81 72.7213 1601.81 71.648C1601.81 68.8916 1603.89 66.226 1607.45 66.226C1610.52 66.226 1612.67 68.3172 1612.67 71.3104C1612.67 74.6916 1610.96 77.0348 1608.74 77.0348C1607.52 77.0348 1606.59 76.0219 1606.89 74.7773C1607.24 73.2907 1607.92 71.6883 1607.92 70.615C1607.92 69.6576 1607.41 68.8564 1606.34 68.8564C1605.09 68.8564 1604.08 70.1514 1604.08 71.8899C1604.08 72.9985 1604.45 73.7442 1604.45 73.7442C1604.45 73.7442 1603.22 78.9748 1602.99 79.9524C1602.74 81.0307 1602.84 82.5525 1602.94 83.5402C1598.3 81.7211 1595 77.196 1595 71.9C1595 64.9964 1600.6 59.4031 1607.5 59.4031C1614.4 59.4031 1620 64.9964 1620 71.9Z" fill="#CA8F65"/>
</g>
</g>
</g>
<g clip-path="url(#clip7_976_1071)">
<g clip-path="url(#clip8_976_1071)">
<g clip-path="url(#clip9_976_1071)">
<path d="M1566.25 63.4163C1563.91 61.0735 1560.8 59.7849 1557.49 59.7849C1550.67 59.7849 1545.11 65.3407 1545.11 72.1683C1545.11 74.3494 1545.68 76.4802 1546.76 78.3601L1545 84.7749L1551.57 83.0513C1553.38 84.0386 1555.41 84.5574 1557.49 84.5574H1557.49C1564.32 84.5574 1569.99 79.0016 1569.99 72.1739C1569.99 68.8661 1568.59 65.7591 1566.25 63.4163ZM1557.49 82.4711C1555.64 82.4711 1553.83 81.9747 1552.25 81.0376L1551.88 80.8144L1547.98 81.8352L1549.02 78.0365L1548.78 77.6461C1547.74 76.0061 1547.2 74.1151 1547.2 72.1683C1547.2 66.4954 1551.82 61.8767 1557.5 61.8767C1560.25 61.8767 1562.83 62.9477 1564.77 64.8945C1566.71 66.8412 1567.91 69.4239 1567.9 72.1739C1567.9 77.8525 1563.17 82.4711 1557.49 82.4711ZM1563.14 74.7622C1562.83 74.606 1561.31 73.8585 1561.03 73.7581C1560.74 73.6521 1560.53 73.6019 1560.33 73.9143C1560.12 74.2267 1559.53 74.9184 1559.35 75.1303C1559.17 75.3367 1558.98 75.3646 1558.68 75.2084C1556.86 74.2992 1555.66 73.5852 1554.47 71.5269C1554.15 70.9802 1554.78 71.0193 1555.37 69.8367C1555.48 69.6303 1555.42 69.4518 1555.35 69.2956C1555.27 69.1394 1554.65 67.6166 1554.39 66.9974C1554.14 66.395 1553.89 66.4787 1553.7 66.4675C1553.52 66.4563 1553.31 66.4563 1553.1 66.4563C1552.9 66.4563 1552.56 66.5344 1552.28 66.8412C1551.99 67.1536 1551.2 67.9011 1551.2 69.4239C1551.2 70.9467 1552.31 72.4194 1552.46 72.6258C1552.61 72.8321 1554.64 75.9559 1557.75 77.3002C1559.71 78.1481 1560.48 78.2206 1561.46 78.0756C1562.06 77.9863 1563.29 77.3281 1563.55 76.603C1563.8 75.8778 1563.8 75.2586 1563.73 75.1303C1563.65 74.9909 1563.45 74.9128 1563.14 74.7622Z" fill="#CA8F65"/>
</g>
</g>
</g>
<g clip-path="url(#clip10_976_1071)">
<g clip-path="url(#clip11_976_1071)">
<g clip-path="url(#clip12_976_1071)">
<path d="M1707.5 59.4031C1700.6 59.4031 1695 64.9981 1695 71.9C1695 78.8018 1700.6 84.3968 1707.5 84.3968C1714.4 84.3968 1720 78.8018 1720 71.9C1720 64.9981 1714.4 59.4031 1707.5 59.4031ZM1713.29 67.902C1713.1 69.878 1712.29 74.6733 1711.88 76.8866C1711.7 77.8231 1711.36 78.1371 1711.02 78.1678C1710.3 78.2346 1709.75 77.6882 1709.04 77.2274C1707.94 76.5065 1707.32 76.0576 1706.25 75.3541C1705.02 74.541 1705.82 74.0943 1706.52 73.3636C1706.71 73.1725 1709.9 70.2641 1709.97 70.0003C1709.97 69.9673 1709.98 69.8441 1709.91 69.7794C1709.84 69.7147 1709.73 69.7366 1709.65 69.7542C1709.54 69.7792 1707.78 70.9406 1704.38 73.2383C1703.88 73.5807 1703.43 73.7476 1703.02 73.7389C1702.58 73.7292 1701.72 73.4866 1701.08 73.2791C1700.3 73.0248 1699.68 72.8903 1699.73 72.4582C1699.76 72.2331 1700.07 72.003 1700.66 71.7679C1704.3 70.1806 1706.73 69.1342 1707.95 68.6285C1711.42 67.185 1712.14 66.9343 1712.61 66.9259C1712.71 66.9242 1712.94 66.9498 1713.09 67.0713C1713.19 67.1578 1713.26 67.2786 1713.27 67.4097C1713.3 67.5725 1713.3 67.7376 1713.29 67.902Z" fill="#CA8F65"/>
</g>
</g>
</g>
<path fill-rule="evenodd" clip-rule="evenodd" d="M876.278 60.5245C876.278 60.895 876.326 61.2517 876.405 61.5673C876.485 61.8829 876.596 62.1711 876.755 62.4455C876.914 62.7062 877.089 62.9395 877.295 63.1453C877.502 63.3511 877.74 63.5158 877.995 63.653C878.249 63.7903 878.535 63.9 878.837 63.9686C879.139 64.0372 879.488 64.0784 879.854 64.0784C880.426 64.0784 880.919 63.9961 881.363 63.8314C881.793 63.6667 882.158 63.4198 882.476 63.0904C882.794 62.7474 883.032 62.3632 883.191 61.9104C883.35 61.4576 883.429 60.9362 883.429 60.3736C883.429 59.9756 883.398 59.6189 883.318 59.2758C883.239 58.9465 883.127 58.6309 882.984 58.3565C882.826 58.0821 882.651 57.8351 882.444 57.6155C882.238 57.4097 882.015 57.2313 881.761 57.0804C881.507 56.9431 881.22 56.8334 880.919 56.7648C880.601 56.6962 880.267 56.655 879.886 56.655C879.282 56.655 878.773 56.7373 878.328 56.902C878.106 56.9843 877.899 57.0804 877.724 57.2039C877.55 57.3273 877.375 57.4646 877.232 57.6292C877.073 57.7939 876.946 57.986 876.819 58.1781C876.707 58.3839 876.612 58.6035 876.533 58.8367C876.453 59.0837 876.39 59.3307 876.358 59.6189C876.294 59.907 876.278 60.2089 876.278 60.5245ZM873.942 60.5108C873.942 59.9893 873.99 59.4954 874.101 59.0288C874.213 58.5623 874.371 58.1095 874.594 57.6841C874.816 57.2587 875.087 56.8745 875.42 56.5315C875.754 56.1885 876.151 55.8866 876.596 55.6259C877.041 55.3652 877.55 55.1731 878.106 55.0359C878.646 54.9124 879.25 54.8438 879.886 54.8438C880.315 54.8438 880.728 54.8712 881.125 54.9398C881.522 55.0084 881.904 55.1045 882.269 55.2417C882.635 55.3789 882.969 55.5298 883.286 55.7219C883.604 55.914 883.89 56.1198 884.16 56.3668C884.43 56.6138 884.653 56.8746 884.86 57.1764C885.066 57.4646 885.241 57.7802 885.384 58.1232C885.527 58.4663 885.638 58.823 885.702 59.2072C885.765 59.5777 885.813 59.9756 885.813 60.3736C885.813 60.9362 885.749 61.4576 885.638 61.9378C885.527 62.4181 885.336 62.8709 885.098 63.2688C884.86 63.6805 884.558 64.0372 884.192 64.3665C883.843 64.6821 883.413 64.9566 882.937 65.1899C882.46 65.4231 881.983 65.5878 881.459 65.6975C880.95 65.8073 880.41 65.8759 879.87 65.8759C879.314 65.8759 878.757 65.821 878.249 65.6975C877.724 65.574 877.232 65.3957 876.771 65.1624C876.31 64.9291 875.897 64.641 875.547 64.3117C875.198 63.9823 874.896 63.5981 874.657 63.1865C874.419 62.7748 874.244 62.3358 874.117 61.8967C873.99 61.4439 873.942 60.991 873.942 60.5108ZM848.548 59.4679H851.456C851.949 59.4679 852.362 59.4268 852.696 59.3582C852.998 59.2896 853.252 59.1935 853.411 59.0837C853.586 58.9602 853.713 58.823 853.792 58.6584C853.872 58.5074 853.92 58.3153 853.92 58.1232C853.92 57.2725 853.22 56.8471 851.822 56.8471H848.533V59.4679H848.548ZM846.228 65.382V55.0496H851.743C852.235 55.0496 852.648 55.0633 853.014 55.0907C853.395 55.1182 853.697 55.1731 853.92 55.2417C854.142 55.3103 854.365 55.3926 854.555 55.4749C854.746 55.571 854.921 55.667 855.08 55.7905C855.239 55.9003 855.382 56.0375 855.525 56.2022C855.652 56.3531 855.779 56.5315 855.89 56.7373C856.001 56.9431 856.097 57.1627 856.16 57.396C856.224 57.6292 856.24 57.8625 856.24 58.1232C856.24 59.6189 855.382 60.5794 853.649 61.0048C853.808 61.1145 853.967 61.238 854.11 61.3752C854.301 61.5536 854.476 61.732 854.635 61.9104C854.81 62.1025 854.968 62.2946 855.111 62.5004L857.511 65.725H854.651L852.998 63.5021C852.854 63.3051 852.719 63.1317 852.593 62.9699C852.552 62.9175 852.512 62.8664 852.473 62.816C852.407 62.7357 852.343 62.6578 852.283 62.5833C852.198 62.4796 852.118 62.3824 852.044 62.2946C851.917 62.1436 851.79 62.0202 851.663 61.9104C851.552 61.8006 851.425 61.7045 851.313 61.6222C851.229 61.5599 851.145 61.5133 851.068 61.4705C851.043 61.4568 851.019 61.4434 850.996 61.4301C850.9 61.389 850.821 61.3615 850.741 61.3478C850.716 61.3441 850.69 61.3395 850.662 61.3347C850.586 61.3214 850.501 61.3066 850.408 61.3066C850.265 61.2929 850.106 61.2929 849.899 61.2929H849.899H848.517V65.725H846.212V65.382H846.228ZM821.2 59.811H823.79C825.363 59.811 826.158 59.317 826.158 58.329C826.158 58.1918 826.142 58.0683 826.126 57.9723C826.11 57.8764 826.078 57.7805 826.047 57.6846L826.047 57.6846L826.047 57.6841C826.015 57.6018 825.967 57.5195 825.919 57.4509C825.872 57.3822 825.808 57.3136 825.729 57.2588C825.665 57.2039 825.586 57.149 825.506 57.1078L825.506 57.1078C825.411 57.0666 825.316 57.0255 825.204 56.998C825.109 56.9706 824.934 56.9431 824.712 56.9294C824.457 56.9157 824.156 56.902 823.79 56.902H821.2V59.811ZM818.864 65.382V55.0496H823.631C823.949 55.0496 824.251 55.0633 824.552 55.077H824.552L824.553 55.077C824.839 55.0907 825.125 55.1182 825.379 55.1456C825.649 55.1731 825.904 55.228 826.158 55.3103C826.412 55.3926 826.666 55.4887 826.889 55.6122C827.127 55.7357 827.35 55.9003 827.556 56.0787C827.747 56.2571 827.922 56.4629 828.065 56.6962C828.208 56.9294 828.319 57.1764 828.398 57.4509C828.478 57.7116 828.51 57.9997 828.51 58.2879C828.51 60.5382 826.921 61.6634 823.758 61.6634H821.168V65.725H818.864V65.382ZM813 50H891.248V70.7745H813V50ZM1096.34 61.8553L1098.18 61.7181L1098.23 62.0337C1098.28 62.3904 1098.39 62.6923 1098.55 62.953C1098.71 63.2 1098.91 63.4058 1099.18 63.5568C1099.47 63.7214 1099.77 63.8449 1100.12 63.9273C1100.47 64.0096 1100.85 64.0508 1101.26 64.0508C1101.71 64.0508 1102.09 64.0096 1102.42 63.941C1102.73 63.8724 1102.98 63.7626 1103.19 63.6254C1103.38 63.4882 1103.54 63.3372 1103.62 63.1863C1103.71 63.0354 1103.76 62.8707 1103.76 62.6786C1103.76 62.5551 1103.74 62.4316 1103.7 62.3356C1103.65 62.2258 1103.58 62.1297 1103.49 62.0474C1103.39 61.9514 1103.28 61.869 1103.16 61.7867C1103.01 61.7044 1102.85 61.6357 1102.68 61.5809C1102.49 61.526 1102.2 61.4437 1101.85 61.3613C1101.49 61.279 1101.04 61.1829 1100.52 61.0869C1100.12 61.0046 1099.75 60.9222 1099.42 60.8399C1099.07 60.7439 1098.77 60.6478 1098.48 60.538C1098.18 60.4283 1097.91 60.291 1097.67 60.1264C1097.43 59.9617 1097.21 59.7696 1097.02 59.5501C1096.83 59.3305 1096.69 59.0835 1096.59 58.8228C1096.5 58.5621 1096.45 58.274 1096.45 57.9721C1096.45 57.6565 1096.5 57.3546 1096.59 57.0939C1096.69 56.8195 1096.81 56.5588 1097.01 56.3392C1097.18 56.1197 1097.42 55.9138 1097.69 55.7355C1097.96 55.5571 1098.26 55.4061 1098.61 55.2826C1098.96 55.1591 1099.33 55.0631 1099.71 54.9945C1100.09 54.9259 1100.5 54.8984 1100.91 54.8984C1101.65 54.8984 1102.3 54.967 1102.87 55.118C1103.46 55.2689 1103.95 55.5022 1104.36 55.8041C1104.78 56.1059 1105.08 56.4627 1105.3 56.8744C1105.52 57.2723 1105.63 57.7251 1105.67 58.2054L1105.68 58.5347L1103.47 58.6719L1103.43 58.3563C1103.36 57.8074 1103.12 57.3958 1102.74 57.1351C1102.35 56.8606 1101.76 56.7234 1100.98 56.7234C1100.17 56.7234 1099.56 56.8332 1099.18 57.039C1098.85 57.2311 1098.69 57.5055 1098.69 57.8897C1098.69 57.9995 1098.71 58.0956 1098.75 58.1916C1098.79 58.2739 1098.85 58.3563 1098.93 58.4386C1099.01 58.5209 1099.12 58.6033 1099.23 58.6582C1099.34 58.7268 1099.47 58.7817 1099.61 58.8228C1099.77 58.8777 1099.98 58.9326 1100.23 58.9875C1100.34 59.0097 1100.46 59.0342 1100.58 59.0601C1100.75 59.098 1100.95 59.1388 1101.15 59.1796C1101.8 59.3031 1102.36 59.4266 1102.77 59.5226C1103.22 59.6324 1103.58 59.7422 1103.82 59.8382C1104.06 59.9343 1104.28 60.044 1104.49 60.1538C1104.7 60.2636 1104.87 60.4008 1105.03 60.538C1105.19 60.6752 1105.33 60.8124 1105.46 60.9771C1105.59 61.128 1105.68 61.2927 1105.76 61.4574C1105.84 61.622 1105.9 61.8004 1105.94 61.9925C1105.98 62.1846 1106 62.3767 1106 62.5688C1106 63.0902 1105.89 63.5568 1105.65 63.9684C1105.41 64.3801 1105.06 64.7368 1104.59 65.0387C1104.14 65.3269 1103.63 65.5464 1103.09 65.6836C1102.55 65.8209 1101.95 65.9032 1101.31 65.9032C1100.47 65.9032 1099.74 65.8208 1099.09 65.6562C1098.42 65.4915 1097.86 65.2308 1097.42 64.8878C1096.96 64.5447 1096.62 64.1468 1096.37 63.7077C1096.13 63.2549 1096 62.7609 1095.97 62.2121L1095.96 61.8965L1096.34 61.8553ZM1069.02 61.8553L1070.86 61.7181L1070.91 62.0337C1070.96 62.3904 1071.07 62.6923 1071.23 62.953C1071.39 63.2 1071.6 63.4058 1071.87 63.5568C1072.15 63.7214 1072.45 63.8449 1072.8 63.9273C1073.15 64.0096 1073.53 64.0508 1073.95 64.0508C1074.39 64.0508 1074.77 64.0096 1075.11 63.941C1075.41 63.8724 1075.66 63.7626 1075.87 63.6254C1076.06 63.4882 1076.22 63.3372 1076.3 63.1863C1076.39 63.0354 1076.44 62.8707 1076.44 62.6786C1076.44 62.5551 1076.43 62.4316 1076.38 62.3356C1076.33 62.2258 1076.27 62.1297 1076.17 62.0474C1076.08 61.9514 1075.97 61.869 1075.84 61.7867C1075.7 61.7044 1075.54 61.6357 1075.36 61.5809C1075.17 61.526 1074.89 61.4437 1074.54 61.3613C1074.17 61.279 1073.73 61.1829 1073.2 61.0869C1072.8 61.0046 1072.44 60.9222 1072.09 60.8399C1071.74 60.7439 1071.44 60.6478 1071.15 60.538C1070.85 60.4283 1070.58 60.291 1070.34 60.1264C1070.1 59.9617 1069.88 59.7696 1069.69 59.5501C1069.5 59.3305 1069.36 59.0835 1069.26 58.8228C1069.16 58.5621 1069.12 58.274 1069.12 57.9721C1069.12 57.6565 1069.16 57.3546 1069.26 57.0939C1069.36 56.8195 1069.48 56.5588 1069.67 56.3392C1069.85 56.1197 1070.09 55.9138 1070.36 55.7355C1070.63 55.5571 1070.93 55.4061 1071.28 55.2826C1071.63 55.1591 1071.99 55.0631 1072.37 54.9945C1072.76 54.9259 1073.17 54.8984 1073.58 54.8984C1074.31 54.8984 1074.98 54.967 1075.54 55.118C1076.12 55.2689 1076.62 55.5022 1077.03 55.8041C1077.44 56.1059 1077.75 56.4627 1077.97 56.8744C1078.19 57.2723 1078.3 57.7251 1078.33 58.2054L1078.35 58.5347L1076.14 58.6719L1076.09 58.3563C1076.03 57.8074 1075.79 57.3958 1075.41 57.1351C1075.01 56.8606 1074.42 56.7234 1073.65 56.7234C1072.84 56.7234 1072.23 56.8332 1071.85 57.039C1071.52 57.2311 1071.36 57.5055 1071.36 57.8897C1071.36 57.9995 1071.37 58.0956 1071.42 58.1916C1071.45 58.2739 1071.52 58.3563 1071.6 58.4386C1071.68 58.5209 1071.79 58.6033 1071.9 58.6582C1072.01 58.7268 1072.14 58.7817 1072.28 58.8228C1072.44 58.8777 1072.64 58.9326 1072.9 58.9875C1073.01 59.0097 1073.12 59.0342 1073.24 59.0601L1073.24 59.0602C1073.42 59.0981 1073.61 59.1388 1073.82 59.1796C1074.47 59.3031 1075.03 59.4266 1075.44 59.5226C1075.89 59.6324 1076.25 59.7422 1076.49 59.8382C1076.73 59.9343 1076.95 60.044 1077.16 60.1538C1077.36 60.2636 1077.54 60.4008 1077.7 60.538C1077.86 60.6752 1078 60.8124 1078.13 60.9771C1078.25 61.128 1078.35 61.2927 1078.43 61.4574C1078.51 61.622 1078.57 61.8004 1078.6 61.9925C1078.65 62.1846 1078.67 62.3767 1078.67 62.5688C1078.67 63.0902 1078.56 63.5568 1078.32 63.9684C1078.08 64.3801 1077.73 64.7368 1077.27 65.0387C1076.82 65.3269 1076.32 65.5464 1075.78 65.6836C1075.23 65.8209 1074.63 65.9032 1074 65.9032C1073.15 65.9032 1072.42 65.8208 1071.77 65.6562C1071.1 65.4915 1070.55 65.2308 1070.1 64.8878C1069.64 64.5447 1069.31 64.1468 1069.05 63.7077C1068.81 63.2549 1068.69 62.7609 1068.66 62.2121L1068.64 61.8965L1069.02 61.8553ZM1041.93 65.3818V55.0494H1051.08V56.9018H1044.23V59.2894H1050.65V61.1418H1044.23V63.8724H1051.35V65.7248H1041.93V65.3818ZM1013.67 65.3818V55.0494H1015.83L1021.33 62.1435V55.0494H1023.59V65.7248H1021.41L1015.9 58.617V65.7248H1013.66V65.3818H1013.67ZM988.088 65.3818V55.0494H990.392V63.8724H996.097V65.7248H988.088V65.3818ZM962.567 65.3818V55.0494H964.871V63.8724H970.576V65.7248H962.567V65.3818ZM935.346 65.3818V55.0494H944.499V56.9018H937.65V59.2894H944.07V61.1418H937.65V63.8724H944.769V65.7248H935.346V65.3818ZM905.534 65.4641L902.324 55.0494H904.707L906.551 61.869L906.694 62.4453C907.162 60.8006 907.723 59.1435 908.281 57.4947L908.281 57.4944L908.281 57.4934C908.557 56.6804 908.831 55.8695 909.093 55.0631H911.509L913.241 60.3596C913.464 61.032 913.638 61.6632 913.797 62.2669L913.813 62.3218C914.481 59.9068 915.18 57.4781 915.879 55.0631H918.215C917.838 56.2491 917.464 57.4351 917.089 58.6211C916.341 60.989 915.592 63.3569 914.83 65.7248H912.733L910.269 57.9446L907.759 65.7248H905.582L905.534 65.4641ZM1102.63 87.2557C1102.96 87.4203 1103.36 87.5027 1103.84 87.5027C1104.52 87.5027 1105.06 87.3517 1105.43 87.0361C1105.81 86.7068 1106 86.2677 1106 85.6777V85.6365H1104.71V85.6777C1104.71 85.9109 1104.65 86.1031 1104.49 86.2266C1104.33 86.35 1104.12 86.4187 1103.84 86.4187C1103.54 86.4187 1103.31 86.3363 1103.14 86.1579C1102.96 85.9796 1102.89 85.7463 1102.89 85.4307V84.6897H1105.98V83.0157C1105.98 82.5766 1105.9 82.1924 1105.73 81.8905C1105.56 81.5886 1105.3 81.3554 1104.97 81.1907C1104.63 81.0261 1104.24 80.9437 1103.78 80.9437C1103.31 80.9437 1102.92 81.0261 1102.6 81.2044C1102.28 81.3828 1102.03 81.6298 1101.85 81.9728C1101.68 82.3022 1101.6 82.7138 1101.6 83.1804V85.4032C1101.6 85.8423 1101.69 86.2265 1101.87 86.5421C1102.04 86.844 1102.3 87.091 1102.63 87.2557ZM1102.89 83.7292V83.1117C1102.89 82.755 1102.96 82.4806 1103.12 82.2885C1103.27 82.0964 1103.49 82.0003 1103.78 82.0003C1104.08 82.0003 1104.3 82.0963 1104.46 82.2747C1104.62 82.4531 1104.7 82.7138 1104.7 83.0431V83.7292H1102.89ZM1093.27 83.6079L1091.35 87.4066H1090.27V81.0535H1091.52V84.851L1093.45 81.0398H1094.53V87.3929H1093.27V83.6079ZM1080.16 84.8407V87.4066H1078.81V81.0535H1080.16V83.7429H1081.7V81.0535H1083.05V87.4066H1081.7V84.8407H1080.16ZM1067.58 87.0636C1067.88 87.3517 1068.34 87.5027 1068.94 87.5027C1069.28 87.5027 1069.55 87.4478 1069.75 87.3517C1069.97 87.2419 1070.13 87.091 1070.25 86.8715C1070.26 86.8496 1070.27 86.8273 1070.28 86.8046V87.4203H1071.6V82.7687C1071.6 82.3845 1071.52 82.0552 1071.34 81.7807C1071.17 81.5063 1070.93 81.3005 1070.59 81.1633C1070.26 81.0123 1069.88 80.9437 1069.42 80.9437C1068.74 80.9437 1068.21 81.1084 1067.83 81.424C1067.46 81.7396 1067.27 82.1924 1067.27 82.7687H1068.59C1068.59 82.5217 1068.66 82.3159 1068.8 82.1787C1068.94 82.0415 1069.13 81.9728 1069.39 81.9728C1069.67 81.9728 1069.9 82.0415 1070.05 82.1787C1070.21 82.3159 1070.29 82.508 1070.29 82.7687H1070.28V83.5783H1069.4C1068.64 83.5783 1068.07 83.7566 1067.69 84.1134C1067.31 84.4702 1067.11 85.0053 1067.11 85.7189C1067.11 86.3226 1067.27 86.7617 1067.58 87.0636ZM1070.28 84.6211H1069.4C1069.07 84.6211 1068.81 84.7172 1068.66 84.8956C1068.5 85.0739 1068.4 85.3484 1068.4 85.7189C1068.4 85.9659 1068.47 86.1579 1068.62 86.2814C1068.77 86.4049 1068.99 86.4598 1069.28 86.4598C1069.61 86.4598 1069.86 86.3775 1070.02 86.2128C1070.2 86.0482 1070.28 85.8149 1070.28 85.4856V84.6211ZM1057.37 81.0535H1056.02V87.4066H1056.88V87.4341H1058.55C1059.11 87.4341 1059.55 87.3106 1059.85 87.0498C1060.15 86.8028 1060.31 86.4461 1060.31 85.9796V85.3484C1060.31 84.9916 1060.22 84.7172 1060 84.4976C1059.79 84.2781 1059.49 84.1409 1059.09 84.086C1059.44 84.0311 1059.71 83.9076 1059.9 83.7018C1060.09 83.496 1060.19 83.2489 1060.19 82.9333V82.3982C1060.19 81.9866 1060.04 81.6573 1059.74 81.424C1059.46 81.1907 1059.04 81.0809 1058.5 81.0809H1057.37V81.0535ZM1057.37 82.1787H1058.31C1058.47 82.1787 1058.6 82.2198 1058.69 82.2885C1058.79 82.3571 1058.84 82.4668 1058.84 82.5903V82.9333C1058.84 83.1255 1058.77 83.2627 1058.66 83.3725C1058.53 83.4685 1058.37 83.5234 1058.15 83.5234H1057.37V82.1787ZM1057.37 84.6211H1058.15C1058.39 84.6211 1058.6 84.676 1058.74 84.7995C1058.88 84.923 1058.96 85.0877 1058.96 85.3072V85.7737C1058.96 85.9521 1058.91 86.0756 1058.82 86.1717C1058.72 86.2677 1058.6 86.3089 1058.42 86.3089H1057.37V84.6211ZM1047.39 86.1854C1047.25 86.3089 1047.06 86.3775 1046.82 86.3775C1046.58 86.3775 1046.39 86.3089 1046.27 86.1854C1046.12 86.0482 1046.06 85.8698 1046.06 85.6365V82.8099C1046.06 82.5766 1046.12 82.3982 1046.27 82.2747C1046.39 82.1512 1046.58 82.0826 1046.82 82.0826C1047.08 82.0826 1047.25 82.1512 1047.39 82.2747C1047.54 82.3982 1047.6 82.5766 1047.6 82.8099V85.6365C1047.6 85.8698 1047.52 86.0619 1047.39 86.1854ZM1045.69 87.2831C1046.01 87.4341 1046.39 87.5027 1046.84 87.5027C1047.28 87.5027 1047.66 87.434 1047.98 87.2694C1048.3 87.1322 1048.54 86.9264 1048.7 86.6519C1048.86 86.3775 1048.94 86.0482 1048.94 85.664V82.7412C1048.94 82.357 1048.86 82.0277 1048.7 81.7533C1048.54 81.4789 1048.3 81.273 1047.98 81.1358C1047.66 80.9986 1047.28 80.93 1046.84 80.93C1046.39 80.93 1046.01 80.9986 1045.69 81.1358C1045.38 81.273 1045.14 81.4789 1044.96 81.7533C1044.79 82.0277 1044.71 82.357 1044.71 82.7412V85.6502C1044.71 86.0482 1044.79 86.3775 1044.96 86.6519C1045.14 86.9264 1045.38 87.1322 1045.69 87.2831ZM1035.16 87.2145C1035.41 87.4066 1035.71 87.5027 1036.06 87.5027C1036.43 87.5027 1036.73 87.4203 1036.98 87.2557C1037.24 87.1047 1037.43 86.8715 1037.57 86.5559C1037.72 86.254 1037.78 85.8835 1037.78 85.4444V82.9608C1037.78 82.5354 1037.72 82.1649 1037.59 81.8631C1037.46 81.5612 1037.27 81.3279 1037.02 81.177C1036.78 81.026 1036.48 80.9437 1036.13 80.9437C1035.79 80.9437 1035.49 81.0398 1035.21 81.2456C1035 81.3947 1034.83 81.587 1034.7 81.8224V81.0535H1033.35V90H1034.7V86.6492C1034.81 86.8848 1034.97 87.0693 1035.16 87.2145ZM1034.7 82.9883C1034.7 82.7824 1034.73 82.6178 1034.79 82.4668C1034.87 82.3159 1034.97 82.2061 1035.09 82.1238C1035.22 82.0415 1035.38 82.0003 1035.55 82.0003C1035.82 82.0003 1036.03 82.0826 1036.19 82.261C1036.33 82.4394 1036.41 82.6864 1036.41 83.002V85.3895C1036.41 85.7189 1036.35 85.9796 1036.19 86.1579C1036.03 86.3363 1035.82 86.4324 1035.55 86.4324C1035.38 86.4324 1035.22 86.3912 1035.09 86.3089C1034.97 86.2266 1034.86 86.1168 1034.79 85.9658C1034.73 85.8149 1034.7 85.6228 1034.7 85.417V82.9883ZM1024.88 83.6119V87.4066H1026.13V81.0535H1025.07L1023.14 84.8646V81.0672H1021.89V87.4203H1022.97L1024.88 83.6119ZM1012.42 81.0535H1011.1V82.1512H1012.42V87.4066H1013.77V82.1512H1015.09V81.0535H1013.77H1012.42ZM1001.63 84.8132V87.4066H1000.28V81.0535H1001.63V83.7155H1002.41L1003.53 81.0535H1004.92L1003.5 84.2532L1005.16 87.4203H1003.72L1002.38 84.8132H1001.63ZM989.82 87.2557C990.154 87.4203 990.551 87.5027 991.028 87.5027C991.711 87.5027 992.252 87.3517 992.617 87.0361C992.998 86.7068 993.189 86.2677 993.189 85.6777V85.6365H991.902V85.6777C991.902 85.9109 991.838 86.1031 991.679 86.2266C991.521 86.35 991.314 86.4187 991.028 86.4187C990.726 86.4187 990.504 86.3363 990.329 86.1579C990.154 85.9796 990.074 85.7463 990.074 85.4307V84.6897H993.173V83.0157C993.173 82.5766 993.094 82.1924 992.919 81.8905C992.744 81.5886 992.49 81.3554 992.156 81.1907C991.822 81.0261 991.425 80.9437 990.964 80.9437C990.504 80.9437 990.106 81.0261 989.788 81.2044C989.471 81.3828 989.216 81.6298 989.042 81.9728C988.867 82.3022 988.787 82.7138 988.787 83.1804V85.4032C988.787 85.8423 988.883 86.2265 989.057 86.5421C989.232 86.844 989.486 87.091 989.82 87.2557ZM990.074 83.7292V83.1117C990.074 82.755 990.154 82.4806 990.313 82.2885C990.456 82.0964 990.678 82.0003 990.964 82.0003C991.266 82.0003 991.489 82.0963 991.648 82.2747C991.807 82.4531 991.886 82.7138 991.886 83.0431V83.7292H990.074ZM980.301 86.1854C980.174 86.3089 979.984 86.3775 979.745 86.3775C979.491 86.3775 979.3 86.3089 979.189 86.1854C979.046 86.0482 978.983 85.8698 978.983 85.6365V82.8099C978.983 82.5766 979.046 82.3982 979.189 82.2747C979.316 82.1512 979.507 82.0826 979.745 82.0826C979.984 82.0826 980.158 82.1512 980.301 82.2747C980.444 82.3982 980.508 82.5766 980.508 82.8099V85.6365C980.508 85.8698 980.429 86.0619 980.301 86.1854ZM978.617 87.2831C978.935 87.4341 979.316 87.5027 979.761 87.5027C980.19 87.5027 980.572 87.434 980.905 87.2694C981.223 87.1322 981.462 86.9264 981.62 86.6519C981.779 86.3775 981.859 86.0482 981.859 85.664V82.7412C981.859 82.357 981.779 82.0277 981.62 81.7533C981.462 81.4789 981.223 81.273 980.905 81.1358C980.588 80.9986 980.206 80.93 979.761 80.93C979.316 80.93 978.935 80.9986 978.617 81.1358C978.299 81.273 978.061 81.4789 977.886 81.7533C977.711 82.0277 977.632 82.357 977.632 82.7412V85.6502C977.632 86.0482 977.711 86.3775 977.886 86.6519C978.061 86.9264 978.299 87.1322 978.617 87.2831ZM968.065 87.2145C968.32 87.4066 968.622 87.5027 968.971 87.5027C969.337 87.5027 969.654 87.4203 969.909 87.2557C970.163 87.1047 970.354 86.8715 970.497 86.5559C970.64 86.254 970.703 85.8835 970.703 85.4444V82.9608C970.703 82.5354 970.64 82.1649 970.513 81.8631C970.385 81.5612 970.195 81.3279 969.94 81.177C969.702 81.026 969.4 80.9437 969.051 80.9437C968.701 80.9437 968.399 81.0398 968.113 81.2456C967.914 81.3889 967.753 81.5721 967.62 81.7952V81.0535H966.27V90H967.62V86.6816C967.732 86.9018 967.882 87.076 968.065 87.2145ZM967.62 85.6604C967.636 85.7728 967.662 85.8765 967.7 85.9658C967.763 86.1168 967.875 86.2266 968.002 86.3089C968.129 86.3912 968.288 86.4324 968.463 86.4324C968.733 86.4324 968.939 86.3363 969.098 86.1579C969.257 85.9796 969.321 85.7189 969.321 85.3895V83.002C969.321 82.6864 969.241 82.4394 969.098 82.261C968.939 82.0826 968.733 82.0003 968.463 82.0003C968.288 82.0003 968.129 82.0415 968.002 82.1238C967.875 82.2061 967.779 82.3159 967.7 82.4668C967.662 82.5561 967.636 82.6502 967.62 82.7548V85.6604ZM957.704 81.0535H956.163H955.607H954.812V87.4066H956.163V82.1512H957.704V87.4066H959.055V81.0535H958.467H957.704ZM927.146 87.2557C927.479 87.4203 927.877 87.5027 928.353 87.5027C929.053 87.5027 929.593 87.3517 929.943 87.0361C930.324 86.7068 930.515 86.2677 930.515 85.6777V85.6365H929.228V85.6777C929.228 85.9109 929.164 86.1031 929.005 86.2266C928.846 86.35 928.64 86.4187 928.353 86.4187C928.052 86.4187 927.829 86.3363 927.654 86.1579C927.479 85.9796 927.4 85.7463 927.4 85.4307V84.6897H930.499V83.0157C930.499 82.5766 930.419 82.1924 930.245 81.8905C930.07 81.5886 929.815 81.3554 929.482 81.1907C929.148 81.0261 928.751 80.9437 928.29 80.9437C927.829 80.9437 927.432 81.0261 927.114 81.2044C926.796 81.3828 926.542 81.6298 926.367 81.9728C926.192 82.3022 926.113 82.7138 926.113 83.1804V85.4032C926.113 85.8423 926.208 86.2265 926.383 86.5421C926.558 86.844 926.812 87.091 927.146 87.2557ZM927.4 83.7292V83.1117C927.4 82.755 927.479 82.4806 927.638 82.2885C927.781 82.0964 928.004 82.0003 928.29 82.0003C928.592 82.0003 928.814 82.0963 928.973 82.2747C929.132 82.4531 929.212 82.7138 929.212 83.0431V83.7292H927.4ZM917.643 86.1854C917.5 86.3089 917.309 86.3775 917.071 86.3775C916.832 86.3775 916.642 86.3089 916.515 86.1854C916.372 86.0482 916.308 85.8698 916.308 85.6365V82.8099C916.308 82.5766 916.372 82.3982 916.515 82.2747C916.642 82.1512 916.832 82.0826 917.071 82.0826C917.325 82.0826 917.5 82.1512 917.643 82.2747C917.786 82.3982 917.849 82.5766 917.849 82.8099V85.6365C917.849 85.8698 917.77 86.0619 917.643 86.1854ZM915.943 87.2831C916.26 87.4341 916.642 87.5027 917.087 87.5027C917.532 87.5027 917.913 87.434 918.231 87.2694C918.549 87.1322 918.787 86.9264 918.946 86.6519C919.105 86.3775 919.184 86.0482 919.184 85.664V82.7412C919.184 82.357 919.105 82.0277 918.946 81.7533C918.787 81.4789 918.549 81.273 918.231 81.1358C917.913 80.9986 917.532 80.93 917.087 80.93C916.642 80.93 916.26 80.9986 915.943 81.1358C915.625 81.273 915.386 81.4789 915.212 81.7533C915.037 82.0277 914.957 82.357 914.957 82.7412V85.6502C914.957 86.0482 915.037 86.3775 915.212 86.6519C915.386 86.9264 915.625 87.1322 915.943 87.2831ZM904.994 84.8407V87.4066H903.643V81.0535H904.994V83.7429H906.535V81.0535H907.886V87.4066H906.535V84.8407H904.994ZM893.393 87.2831C893.727 87.4341 894.124 87.5027 894.601 87.5027C895.078 87.5027 895.475 87.434 895.793 87.2694C896.126 87.1185 896.381 86.8989 896.555 86.6108C896.746 86.3363 896.826 85.9796 896.826 85.5816V85.3758H895.491V85.5816C895.491 85.8423 895.411 86.0482 895.252 86.1991C895.093 86.35 894.887 86.4187 894.601 86.4187C894.315 86.4187 894.092 86.35 893.933 86.2128C893.774 86.0756 893.695 85.8835 893.695 85.6228V82.9333C893.695 82.6589 893.774 82.4257 893.933 82.2747C894.092 82.1238 894.315 82.0415 894.601 82.0415C894.887 82.0415 895.093 82.1101 895.252 82.2747C895.411 82.4257 895.491 82.6589 895.491 82.9471V83.1529H896.826V82.9471C896.826 82.5217 896.746 82.1649 896.571 81.8631C896.396 81.5612 896.142 81.3279 895.809 81.177C895.475 81.026 895.078 80.9437 894.601 80.9437C894.124 80.9437 893.727 81.026 893.393 81.177C893.059 81.3279 892.805 81.5612 892.63 81.8494C892.456 82.1375 892.376 82.4943 892.376 82.9196V85.6091C892.376 86.007 892.456 86.3501 892.63 86.6382C892.805 86.9264 893.059 87.1322 893.393 87.2831ZM882.825 84.8132V87.4066H881.475V81.0535H882.825V83.7155H883.591L884.717 81.0535H886.099L884.7 84.2514L886.353 87.4203H884.923L883.578 84.8132H882.825ZM871.018 87.2557C871.352 87.4203 871.749 87.5027 872.226 87.5027C872.909 87.5027 873.45 87.3517 873.815 87.0361C874.197 86.7068 874.387 86.2677 874.387 85.6777V85.6365H873.1V85.6777C873.1 85.9109 873.037 86.1031 872.878 86.2266C872.719 86.35 872.512 86.4187 872.226 86.4187C871.924 86.4187 871.702 86.3363 871.527 86.1579C871.352 85.9796 871.273 85.7463 871.273 85.4307V84.6897H874.371V83.0157C874.371 82.5766 874.292 82.1924 874.117 81.8905C873.942 81.5886 873.688 81.3554 873.354 81.1907C873.021 81.0261 872.623 80.9437 872.163 80.9437C871.702 80.9437 871.304 81.0261 870.987 81.2044C870.669 81.3828 870.415 81.6298 870.24 81.9728C870.065 82.3022 869.985 82.7138 869.985 83.1804V85.4032C869.985 85.8423 870.081 86.2265 870.256 86.5421C870.43 86.844 870.685 87.091 871.018 87.2557ZM871.273 83.7292V83.1117C871.273 82.755 871.352 82.4806 871.511 82.2885C871.654 82.0964 871.877 82.0003 872.163 82.0003C872.465 82.0003 872.687 82.0963 872.846 82.2747C873.005 82.4531 873.084 82.7138 873.084 83.0431V83.7292H871.273ZM861.547 81.0535H860.212H859.752H858.862V85.7326C858.862 85.9658 858.814 86.1305 858.703 86.2403C858.592 86.35 858.433 86.4049 858.226 86.4049H858.242V87.4615H858.385C858.782 87.4615 859.132 87.4066 859.402 87.2831C859.672 87.1596 859.863 86.9813 860.006 86.748C860.149 86.501 860.212 86.2128 860.212 85.8424V82.1512H861.547V87.4066H862.898V81.0535H862.215H861.547ZM850.153 81.0535H848.612H848.072H847.261V87.4066H848.612V82.1512H850.153V87.4066H851.504V81.0535H850.932H850.153ZM840.047 81.0535H838.744L837.647 84.3467L836.519 81.0535H835.216V87.4066H836.423V83.6993L837.202 85.7051H838.06L838.839 83.5229V87.4066H840.047V81.0535ZM826.571 86.1854C826.444 86.3089 826.253 86.3775 826.015 86.3775C825.776 86.3775 825.586 86.3089 825.459 86.1854C825.316 86.0482 825.252 85.8698 825.252 85.6365V82.8099C825.252 82.5766 825.316 82.3982 825.459 82.2747C825.586 82.1512 825.776 82.0826 826.015 82.0826C826.253 82.0826 826.428 82.1512 826.571 82.2747C826.714 82.3982 826.778 82.5766 826.778 82.8099V85.6365C826.778 85.8698 826.698 86.0619 826.571 86.1854ZM824.887 87.2831C825.204 87.4341 825.586 87.5027 826.031 87.5027C826.476 87.5027 826.857 87.434 827.175 87.2694C827.493 87.1322 827.731 86.9264 827.89 86.6519C828.049 86.3775 828.128 86.0482 828.128 85.664V82.7412C828.128 82.357 828.049 82.0277 827.89 81.7533C827.731 81.4789 827.493 81.273 827.175 81.1358C826.857 80.9986 826.476 80.93 826.031 80.93C825.586 80.93 825.204 80.9986 824.887 81.1358C824.569 81.273 824.33 81.4789 824.156 81.7533C823.981 82.0277 823.901 82.357 823.901 82.7412V85.6502C823.901 86.0482 823.981 86.3775 824.156 86.6519C824.33 86.9264 824.569 87.1322 824.887 87.2831ZM814.351 84.8132V87.4066H813V81.0535H814.351V83.7155H815.132L816.258 81.0535H817.64L816.241 84.2514L817.894 87.4203H816.464L815.119 84.8132H814.351Z" fill="#CA8F65"/>
</g>
<defs>
<linearGradient id="paint0_linear_976_1071" x1="960" y1="0" x2="960" y2="90" gradientUnits="userSpaceOnUse">
<stop stop-opacity="0.8"/>
<stop offset="1" stop-opacity="0.5"/>
</linearGradient>
<clipPath id="clip0_976_1071">
<rect width="1920" height="90" fill="white"/>
</clipPath>
<clipPath id="clip1_976_1071">
<rect width="25" height="28.56" fill="white" transform="translate(1645 58)"/>
</clipPath>
<clipPath id="clip2_976_1071">
<rect width="25" height="28.56" fill="white" transform="translate(1645 58)"/>
</clipPath>
<clipPath id="clip3_976_1071">
<rect width="24.99" height="28.56" fill="white" transform="translate(1645 58)"/>
</clipPath>
<clipPath id="clip4_976_1071">
<rect width="25" height="25.8" fill="white" transform="translate(1595 59)"/>
</clipPath>
<clipPath id="clip5_976_1071">
<rect width="25" height="25.8" fill="white" transform="translate(1595 59)"/>
</clipPath>
<clipPath id="clip6_976_1071">
<rect width="24.9937" height="25.8" fill="white" transform="translate(1595 59)"/>
</clipPath>
<clipPath id="clip7_976_1071">
<rect width="25" height="28.56" fill="white" transform="translate(1545 58)"/>
</clipPath>
<clipPath id="clip8_976_1071">
<rect width="25" height="28.56" fill="white" transform="translate(1545 58)"/>
</clipPath>
<clipPath id="clip9_976_1071">
<rect width="24.99" height="28.56" fill="white" transform="translate(1545 58)"/>
</clipPath>
<clipPath id="clip10_976_1071">
<rect width="25" height="25.8" fill="white" transform="translate(1695 59)"/>
</clipPath>
<clipPath id="clip11_976_1071">
<rect width="25" height="25.8" fill="white" transform="translate(1695 59)"/>
</clipPath>
<clipPath id="clip12_976_1071">
<rect width="24.9937" height="25.8" fill="white" transform="translate(1695 59)"/>
</clipPath>
</defs>
</svg>
