<svg width="25" height="29" viewBox="0 0 25 29" fill="none" xmlns="http://www.w3.org/2000/svg">
<g id="inst.svg" clip-path="url(#clip0_706_832)">
<path id="Vector" d="M12.5055 7.86506C8.95781 7.86506 6.09623 10.7266 6.09623 14.2743C6.09623 17.822 8.95781 20.6836 12.5055 20.6836C16.0532 20.6836 18.9148 17.822 18.9148 14.2743C18.9148 10.7266 16.0532 7.86506 12.5055 7.86506ZM12.5055 18.4412C10.2129 18.4412 8.33863 16.5725 8.33863 14.2743C8.33863 11.9761 10.2073 10.1075 12.5055 10.1075C14.8037 10.1075 16.6724 11.9761 16.6724 14.2743C16.6724 16.5725 14.7981 18.4412 12.5055 18.4412ZM20.6719 7.60289C20.6719 8.43403 20.0025 9.09783 19.1769 9.09783C18.3458 9.09783 17.682 8.42846 17.682 7.60289C17.682 6.77733 18.3514 6.10795 19.1769 6.10795C20.0025 6.10795 20.6719 6.77733 20.6719 7.60289ZM24.9168 9.12014C24.822 7.1176 24.3646 5.34375 22.8975 3.88228C21.4361 2.42081 19.6622 1.96341 17.6597 1.863C15.5958 1.74586 9.40963 1.74586 7.34573 1.863C5.34876 1.95783 3.57492 2.41524 2.10787 3.87671C0.640822 5.33817 0.188994 7.11202 0.0885879 9.11456C-0.0285527 11.1785 -0.0285527 17.3646 0.0885879 19.4285C0.183416 21.4311 0.640822 23.2049 2.10787 24.6664C3.57492 26.1278 5.34318 26.5853 7.34573 26.6857C9.40963 26.8028 15.5958 26.8028 17.6597 26.6857C19.6622 26.5908 21.4361 26.1334 22.8975 24.6664C24.359 23.2049 24.8164 21.4311 24.9168 19.4285C25.034 17.3646 25.034 11.184 24.9168 9.12014ZM22.2505 21.643C21.8154 22.7363 20.9731 23.5786 19.8742 24.0193C18.2287 24.672 14.324 24.5213 12.5055 24.5213C10.687 24.5213 6.77676 24.6664 5.13679 24.0193C4.04348 23.5842 3.20118 22.7419 2.76051 21.643C2.10787 19.9975 2.25848 16.0928 2.25848 14.2743C2.25848 12.4559 2.11345 8.5456 2.76051 6.90563C3.1956 5.81231 4.0379 4.97002 5.13679 4.52935C6.78234 3.8767 10.687 4.02731 12.5055 4.02731C14.324 4.02731 18.2342 3.88228 19.8742 4.52935C20.9675 4.96444 21.8098 5.80674 22.2505 6.90563C22.9031 8.55117 22.7525 12.4559 22.7525 14.2743C22.7525 16.0928 22.9031 20.0031 22.2505 21.643Z" fill="white"/>
</g>
<defs>
<clipPath id="clip0_706_832">
<rect width="24.99" height="28.56" fill="white" transform="translate(0.00488281)"/>
</clipPath>
</defs>
</svg>
