<svg width="24" height="24" viewBox="0 0 24 24" fill="none" xmlns="http://www.w3.org/2000/svg">
  <g id="socials">
    <rect id="Rectangle 1" width="24" height="24" rx="12" fill="red"/>
    <g transform="translate(8, 8)">
      <path id="Vector" d="M6.8338 5.86989V7.6199C6.8345 7.7824 6.8012 7.9432 6.7361 8.092C6.671 8.2409 6.5756 8.3745 6.4559 8.4843C6.3362 8.5941 6.1948 8.6778 6.0409 8.7298C5.887 8.7819 5.724 8.8012 5.5622 8.7866C3.76714 8.5915 2.04291 7.97808 0.527994 6.99572C-0.88144 6.10014 -2.0764 4.90516 -2.97201 3.49573C-3.95786 1.97393 -4.57137 0.241315 -4.76284 -1.56177e-07C-4.77742 -0.161281 -4.75825 -0.323877 -4.70655 -0.477374C-4.65485 -0.630872 -4.57176 -0.771924 -4.46256 -0.891532C-4.35337 -1.01114 -4.22046 -1.10672 -4.0723 -1.17216C-3.92414 -1.2376 -3.76398 -1.27148 -3.60201 -1.27163H-1.85201C-1.56891 -1.27443 -1.29446 -1.17399 -1.07982 -0.989378C-0.865167 -0.804778 -0.724965 -0.548427 -0.685335 -0.268109C-0.611485 0.291932 -0.474495 0.841817 -0.27701 1.37106C-0.198529 1.57985 -0.181543 1.80677 -0.228058 2.02491C-0.274585 2.24305 -0.382664 2.44329 -0.539513 2.60189L-1.28034 3.34273C-0.44994 4.80313 0.759254 6.01232 2.21966 6.84273L2.96049 6.10189C3.11909 5.94506 3.31933 5.83697 3.53748 5.79045C3.75562 5.74392 3.98253 5.76091 4.19133 5.83939C4.72064 6.03688 5.27055 6.17386 5.83051 6.24773C6.11389 6.2877 6.37262 6.43043 6.55763 6.64877C6.74263 6.8671 6.84093 7.14581 6.83382 7.43189Z" fill="#010005"/>
      </g>
  </g>
</svg>
