<svg width="25" height="26" viewBox="0 0 25 26" fill="none" xmlns="http://www.w3.org/2000/svg">
<g id="pinterest.svg" clip-path="url(#clip0_938_2080)">
<path id="Vector" d="M24.9969 12.9C24.9969 19.8035 19.4035 25.3968 12.5 25.3968C11.21 25.3968 9.97038 25.2003 8.80132 24.8375C9.31026 24.006 10.0712 22.6455 10.3533 21.5621C10.5045 20.9776 11.1294 18.5891 11.1294 18.5891C11.5375 19.3651 12.7267 20.0252 13.9916 20.0252C17.7608 20.0252 20.4768 16.5583 20.4768 12.2499C20.4768 8.12292 17.1057 5.03397 12.7721 5.03397C7.3803 5.03397 4.51307 8.65202 4.51307 12.5976C4.51307 14.4318 5.49065 16.7145 7.04772 17.4401C7.28456 17.551 7.41053 17.5006 7.46596 17.2739C7.50628 17.1025 7.71792 16.2509 7.81366 15.8579C7.84389 15.7319 7.82878 15.621 7.728 15.5001C7.21905 14.8702 6.80585 13.7213 6.80585 12.648C6.80585 9.89163 8.89202 7.22597 12.4496 7.22597C15.5184 7.22597 17.6701 9.31718 17.6701 12.3104C17.6701 15.6916 15.9618 18.0348 13.7396 18.0348C12.5151 18.0348 11.593 17.0219 11.8903 15.7773C12.243 14.2907 12.9233 12.6883 12.9233 11.615C12.9233 10.6576 12.4093 9.85636 11.341 9.85636C10.0863 9.85636 9.07846 11.1514 9.07846 12.8899C9.07846 13.9985 9.45135 14.7442 9.45135 14.7442C9.45135 14.7442 8.21678 19.9748 7.99003 20.9524C7.73807 22.0307 7.83886 23.5525 7.94468 24.5402C3.29866 22.7211 0.00311279 18.196 0.00311279 12.9C0.00311279 5.99644 5.59647 0.403076 12.5 0.403076C19.4035 0.403076 24.9969 5.99644 24.9969 12.9Z" fill="white"/>
</g>
<defs>
<clipPath id="clip0_938_2080">
<rect width="24.9937" height="25.8" fill="white" transform="translate(0.00311279)"/>
</clipPath>
</defs>
</svg>
