<?xml version="1.0" encoding="UTF-8"?> <svg xmlns="http://www.w3.org/2000/svg" viewBox="0 0 929.14 66.47"> <defs> <style>.cls-1{fill:#fff;}</style> </defs> <title>Logo Long White</title> <g id="Layer_2" data-name="Layer 2"> <g id="Layer_1-2" data-name="Layer 1"> <path class="cls-1" d="M24.48,1.32v63.6h12.6V13.43H61.56V1.32ZM0,13.43H17.44V1.32H0Z"></path> <path class="cls-1" d="M90.48,1.32H81L49.8,64.92H63.72L71.28,49.2H100.2L108,64.92h13.92ZM77.28,37.08l8.4-17,8.52,17Z"></path> <path class="cls-1" d="M127.2,1.32V65.16h12.72V1.32Z"></path> <path class="cls-1" d="M185.76,30.12v11h14.76v4.92Q195,54.24,184.8,54.24q-9.48,0-15-5.53c-3.76-3.75-5.64-9-5.64-15.71a20.85,20.85,0,0,1,6.12-15.37q5.4-5.38,14.4-5.39a20.86,20.86,0,0,1,10.2,2.51,19.39,19.39,0,0,1,6.72,6.72l10.68-7.55a33.55,33.55,0,0,0-10.56-9.49A36.49,36.49,0,0,0,183.84,0q-14,0-23.28,9.24t-9.24,23.88q0,14.39,9.24,24.12,8.74,9.24,24.24,9.23,10.32,0,17.64-5.15A39.14,39.14,0,0,0,213.12,50V30.12Z"></path> <path class="cls-1" d="M255.84,1.32h-9.48l-31.2,63.6h13.92l7.56-15.72h28.92l7.8,15.72h13.92Zm-13.2,35.76L251,20l8.52,17Z"></path> <path class="cls-1" d="M361.55,1.32h-9.48l-31.2,63.6h13.92l7.56-15.72h28.92l7.8,15.72H393Zm-13.2,35.76,8.4-17,8.52,17Z"></path> <path class="cls-1" d="M442.31,39a18.79,18.79,0,0,0,8.88-6.25q3.6-4.55,3.6-11.63,0-9.24-5.16-14.41-5.4-5.38-15.36-5.39H397.79v63.6h12.6V40.08h18.24l14.64,24.84h14.16Zm-2.52-13.08c-1.28,1.28-3.4,1.91-6.36,1.91h-23V13.43h22.08c3.36,0,5.6.41,6.72,1.2,1.76,1.13,2.64,3,2.64,5.65A7.64,7.64,0,0,1,439.79,25.92Z"></path> <path class="cls-1" d="M513.11,41.28a21.74,21.74,0,0,1-7.32,9.12,19.89,19.89,0,0,1-12,3.84q-8.64,0-13.8-5.16-6.12-6.12-6.12-15.61,0-9.7,6-15.72,5.52-5.5,14.4-5.51a20.9,20.9,0,0,1,10.44,2.51,22.67,22.67,0,0,1,7.2,7.57l10.68-7.57a33.48,33.48,0,0,0-11-10.43Q504.59,0,494.39,0q-14.88,0-24.12,9.24T461,33.59q0,14.53,9.12,23.65,8.88,9.24,24.12,9.23,10.2,0,17.52-4.8a33.8,33.8,0,0,0,11.4-12.84Z"></path> <path class="cls-1" d="M575.51,1.32v23H546.59v-23H533.87v63.6h12.72V36.36h28.92V64.92h12.72V1.32Z"></path> <path class="cls-1" d="M605,1.32V65.16h12.72V1.32Z"></path> <path class="cls-1" d="M621.83,1.32V13.43h24.48V64.92h12.6V13.43h24.48V1.32Z"></path> <path class="cls-1" d="M698.27,52.79V37.2h23.4V25.08h-23.4V13.43h38.52V1.32H685.67v63.6h53.52V52.79Z"></path> <path class="cls-1" d="M795.23,41.28a21.74,21.74,0,0,1-7.32,9.12,19.91,19.91,0,0,1-12,3.84q-8.64,0-13.8-5.16Q756,43,756,33.47q0-9.7,6-15.72,5.5-5.5,14.4-5.51a20.9,20.9,0,0,1,10.44,2.51,22.87,22.87,0,0,1,7.2,7.57l10.68-7.57a33.58,33.58,0,0,0-11-10.43Q786.7,0,776.51,0q-14.88,0-24.12,9.24t-9.24,24.35q0,14.53,9.12,23.65,8.87,9.24,24.12,9.23a31.2,31.2,0,0,0,17.52-4.8,33.88,33.88,0,0,0,11.4-12.84Z"></path> <path class="cls-1" d="M806.74,1.32V13.43h24.48V64.92h12.6V13.43H868.3V1.32Z"></path> <path class="cls-1" d="M923,31.43q-5.76-5-17.4-6.11l-8.52-.73A55.78,55.78,0,0,1,886.78,23c-2.4-.88-3.6-2.29-3.6-4.21,0-2.16,1.28-3.83,3.84-5q2.88-1.54,8.76-1.55a39.7,39.7,0,0,1,13.08,2.16A50.49,50.49,0,0,1,920,20l6.72-10.45A41.84,41.84,0,0,0,914,3,49.74,49.74,0,0,0,896.5,0q-12.72,0-19.56,5.63a18.09,18.09,0,0,0-6.72,14.29,13.48,13.48,0,0,0,3.84,10q5.4,5.52,18.36,6.48l9.36.72q7.44,1,9.24,1.67,5,2.18,5,6.37,0,4.44-4.56,7-3.84,2.28-10.8,2.28a37.55,37.55,0,0,1-14.16-2.53,45.93,45.93,0,0,1-11.76-7.08L867.1,55.43a44.5,44.5,0,0,0,14,8,57.08,57.08,0,0,0,18.84,3q13.92,0,21.6-6.23a19.54,19.54,0,0,0,7.56-15.73A16.17,16.17,0,0,0,923,31.43Z"></path> </g> </g> </svg> 